G04 #@! TF.GenerationSoftware,KiCad,Pcbnew,7.0.10*
G04 #@! TF.CreationDate,2024-02-24T17:37:44+01:00*
G04 #@! TF.ProjectId,rp2040-board,72703230-3430-42d6-926f-6172642e6b69,rev?*
G04 #@! TF.SameCoordinates,Original*
G04 #@! TF.FileFunction,Soldermask,Top*
G04 #@! TF.FilePolarity,Negative*
%FSLAX46Y46*%
G04 Gerber Fmt 4.6, Leading zero omitted, Abs format (unit mm)*
G04 Created by KiCad (PCBNEW 7.0.10) date 2024-02-24 17:37:44*
%MOMM*%
%LPD*%
G01*
G04 APERTURE LIST*
G04 Aperture macros list*
%AMRoundRect*
0 Rectangle with rounded corners*
0 $1 Rounding radius*
0 $2 $3 $4 $5 $6 $7 $8 $9 X,Y pos of 4 corners*
0 Add a 4 corners polygon primitive as box body*
4,1,4,$2,$3,$4,$5,$6,$7,$8,$9,$2,$3,0*
0 Add four circle primitives for the rounded corners*
1,1,$1+$1,$2,$3*
1,1,$1+$1,$4,$5*
1,1,$1+$1,$6,$7*
1,1,$1+$1,$8,$9*
0 Add four rect primitives between the rounded corners*
20,1,$1+$1,$2,$3,$4,$5,0*
20,1,$1+$1,$4,$5,$6,$7,0*
20,1,$1+$1,$6,$7,$8,$9,0*
20,1,$1+$1,$8,$9,$2,$3,0*%
G04 Aperture macros list end*
%ADD10RoundRect,0.250000X0.475000X-0.250000X0.475000X0.250000X-0.475000X0.250000X-0.475000X-0.250000X0*%
%ADD11RoundRect,0.200000X-0.275000X0.200000X-0.275000X-0.200000X0.275000X-0.200000X0.275000X0.200000X0*%
%ADD12RoundRect,0.140000X0.170000X-0.140000X0.170000X0.140000X-0.170000X0.140000X-0.170000X-0.140000X0*%
%ADD13RoundRect,0.140000X-0.140000X-0.170000X0.140000X-0.170000X0.140000X0.170000X-0.140000X0.170000X0*%
%ADD14RoundRect,0.250000X1.000000X0.650000X-1.000000X0.650000X-1.000000X-0.650000X1.000000X-0.650000X0*%
%ADD15RoundRect,0.140000X-0.170000X0.140000X-0.170000X-0.140000X0.170000X-0.140000X0.170000X0.140000X0*%
%ADD16R,1.700000X1.700000*%
%ADD17O,1.700000X1.700000*%
%ADD18RoundRect,0.140000X0.140000X0.170000X-0.140000X0.170000X-0.140000X-0.170000X0.140000X-0.170000X0*%
%ADD19RoundRect,0.135000X0.135000X0.185000X-0.135000X0.185000X-0.135000X-0.185000X0.135000X-0.185000X0*%
%ADD20RoundRect,0.200000X0.275000X-0.200000X0.275000X0.200000X-0.275000X0.200000X-0.275000X-0.200000X0*%
%ADD21RoundRect,0.135000X-0.135000X-0.185000X0.135000X-0.185000X0.135000X0.185000X-0.135000X0.185000X0*%
%ADD22RoundRect,0.200000X0.200000X0.275000X-0.200000X0.275000X-0.200000X-0.275000X0.200000X-0.275000X0*%
%ADD23R,1.000000X0.750000*%
%ADD24RoundRect,0.250000X-0.550000X-0.550000X0.550000X-0.550000X0.550000X0.550000X-0.550000X0.550000X0*%
%ADD25C,1.600000*%
%ADD26O,4.100000X3.000000*%
%ADD27R,2.400000X0.740000*%
%ADD28RoundRect,0.200000X-0.200000X-0.275000X0.200000X-0.275000X0.200000X0.275000X-0.200000X0.275000X0*%
%ADD29C,3.400000*%
%ADD30C,2.900000*%
%ADD31C,0.650000*%
%ADD32R,1.240000X0.600000*%
%ADD33R,1.240000X0.300000*%
%ADD34O,2.100000X1.000000*%
%ADD35O,1.800000X1.000000*%
%ADD36RoundRect,0.218750X0.256250X-0.218750X0.256250X0.218750X-0.256250X0.218750X-0.256250X-0.218750X0*%
%ADD37RoundRect,0.250000X-1.000000X-0.650000X1.000000X-0.650000X1.000000X0.650000X-1.000000X0.650000X0*%
%ADD38RoundRect,0.150000X0.650000X0.150000X-0.650000X0.150000X-0.650000X-0.150000X0.650000X-0.150000X0*%
%ADD39RoundRect,0.135000X0.185000X-0.135000X0.185000X0.135000X-0.185000X0.135000X-0.185000X-0.135000X0*%
%ADD40R,1.400000X1.200000*%
%ADD41R,2.000000X1.500000*%
%ADD42R,2.000000X3.800000*%
%ADD43RoundRect,0.050000X0.050000X-0.387500X0.050000X0.387500X-0.050000X0.387500X-0.050000X-0.387500X0*%
%ADD44RoundRect,0.050000X0.387500X-0.050000X0.387500X0.050000X-0.387500X0.050000X-0.387500X-0.050000X0*%
%ADD45R,3.200000X3.200000*%
%ADD46RoundRect,0.250000X0.625000X-0.312500X0.625000X0.312500X-0.625000X0.312500X-0.625000X-0.312500X0*%
%ADD47RoundRect,0.150000X0.825000X0.150000X-0.825000X0.150000X-0.825000X-0.150000X0.825000X-0.150000X0*%
%ADD48RoundRect,0.150000X-0.825000X-0.150000X0.825000X-0.150000X0.825000X0.150000X-0.825000X0.150000X0*%
%ADD49RoundRect,0.250000X-0.475000X0.250000X-0.475000X-0.250000X0.475000X-0.250000X0.475000X0.250000X0*%
G04 APERTURE END LIST*
D10*
X119200000Y-104350000D03*
X119200000Y-102450000D03*
D11*
X116000000Y-106375000D03*
X116000000Y-108025000D03*
D12*
X143800000Y-95605000D03*
X143800000Y-94645000D03*
X147400000Y-95605000D03*
X147400000Y-94645000D03*
D13*
X152320000Y-100525000D03*
X153280000Y-100525000D03*
D14*
X129200000Y-90600000D03*
X125200000Y-90600000D03*
D15*
X143400000Y-106645000D03*
X143400000Y-107605000D03*
D16*
X119000000Y-118325000D03*
D17*
X121540000Y-118325000D03*
X124080000Y-118325000D03*
X126620000Y-118325000D03*
X129160000Y-118325000D03*
X131700000Y-118325000D03*
X134240000Y-118325000D03*
X136780000Y-118325000D03*
X139320000Y-118325000D03*
X141860000Y-118325000D03*
X144400000Y-118325000D03*
X146940000Y-118325000D03*
X149480000Y-118325000D03*
X152020000Y-118325000D03*
X154560000Y-118325000D03*
X157100000Y-118325000D03*
X159640000Y-118325000D03*
X162180000Y-118325000D03*
X164720000Y-118325000D03*
X167260000Y-118325000D03*
X169800000Y-118325000D03*
X172340000Y-118325000D03*
D18*
X133680000Y-112725000D03*
X132720000Y-112725000D03*
D19*
X161710000Y-86200000D03*
X160690000Y-86200000D03*
D20*
X125200000Y-96225000D03*
X125200000Y-94575000D03*
D21*
X135890000Y-105525000D03*
X136910000Y-105525000D03*
D13*
X154720000Y-101725000D03*
X155680000Y-101725000D03*
D22*
X155025000Y-79000000D03*
X153375000Y-79000000D03*
D23*
X101000000Y-115125000D03*
X107000000Y-115125000D03*
X101000000Y-118875000D03*
X107000000Y-118875000D03*
D13*
X132520000Y-89200000D03*
X133480000Y-89200000D03*
D16*
X169200000Y-76000000D03*
D17*
X166660000Y-76000000D03*
X164120000Y-76000000D03*
X161580000Y-76000000D03*
D10*
X169000000Y-83550000D03*
X169000000Y-81650000D03*
D13*
X157920000Y-86200000D03*
X158880000Y-86200000D03*
D18*
X161680000Y-79000000D03*
X160720000Y-79000000D03*
D21*
X139490000Y-98125000D03*
X140510000Y-98125000D03*
D13*
X166320000Y-86200000D03*
X167280000Y-86200000D03*
D24*
X158750000Y-103500000D03*
D25*
X158750000Y-108500000D03*
X158750000Y-106000000D03*
X173250000Y-103500000D03*
X173250000Y-108500000D03*
D26*
X166250000Y-100400000D03*
X166250000Y-111600000D03*
D27*
X159950000Y-94540000D03*
X156050000Y-94540000D03*
X159950000Y-93270000D03*
X156050000Y-93270000D03*
X159950000Y-92000000D03*
X156050000Y-92000000D03*
X159950000Y-90730000D03*
X156050000Y-90730000D03*
X159950000Y-89460000D03*
X156050000Y-89460000D03*
D28*
X127975000Y-84200000D03*
X129625000Y-84200000D03*
X127975000Y-87200000D03*
X129625000Y-87200000D03*
D21*
X139490000Y-99325000D03*
X140510000Y-99325000D03*
D25*
X110880000Y-81780000D03*
X105800000Y-89400000D03*
D29*
X114690000Y-89400000D03*
X115325000Y-81780000D03*
D30*
X119140000Y-85590000D03*
D31*
X105605000Y-102710000D03*
X105605000Y-108490000D03*
D32*
X106725000Y-102400000D03*
X106725000Y-103200000D03*
D33*
X106725000Y-104350000D03*
X106725000Y-105350000D03*
X106725000Y-105850000D03*
X106725000Y-106850000D03*
D32*
X106725000Y-108000000D03*
X106725000Y-108800000D03*
X106725000Y-108800000D03*
X106725000Y-108000000D03*
D33*
X106725000Y-107350000D03*
X106725000Y-106350000D03*
X106725000Y-104850000D03*
X106725000Y-103850000D03*
D32*
X106725000Y-103200000D03*
X106725000Y-102400000D03*
D34*
X106125000Y-101280000D03*
D35*
X101925000Y-101280000D03*
D34*
X106125000Y-109920000D03*
D35*
X101925000Y-109920000D03*
D23*
X108800000Y-115125000D03*
X114800000Y-115125000D03*
X108800000Y-118875000D03*
X114800000Y-118875000D03*
D15*
X147800000Y-106645000D03*
X147800000Y-107605000D03*
D18*
X140480000Y-96925000D03*
X139520000Y-96925000D03*
D16*
X172200000Y-81325000D03*
D17*
X172200000Y-83865000D03*
D36*
X165200000Y-96787500D03*
X165200000Y-95212500D03*
D12*
X141400000Y-95605000D03*
X141400000Y-94645000D03*
D16*
X134000000Y-76000000D03*
D17*
X136540000Y-76000000D03*
X139080000Y-76000000D03*
X141620000Y-76000000D03*
D13*
X163520000Y-79000000D03*
X164480000Y-79000000D03*
X152320000Y-99325000D03*
X153280000Y-99325000D03*
D37*
X121800000Y-111175000D03*
X125800000Y-111175000D03*
D21*
X152290000Y-101725000D03*
X153310000Y-101725000D03*
D38*
X140400000Y-111030000D03*
X140400000Y-109760000D03*
X140400000Y-108490000D03*
X140400000Y-107220000D03*
X133200000Y-107220000D03*
X133200000Y-108490000D03*
X133200000Y-109760000D03*
X133200000Y-111030000D03*
D39*
X165200000Y-93710000D03*
X165200000Y-92690000D03*
D40*
X152900000Y-104975000D03*
X155100000Y-104975000D03*
X155100000Y-103275000D03*
X152900000Y-103275000D03*
D41*
X121850000Y-103075000D03*
X121850000Y-105375000D03*
X121850000Y-107675000D03*
D42*
X128150000Y-105375000D03*
D13*
X134920000Y-112725000D03*
X135880000Y-112725000D03*
D39*
X167200000Y-93710000D03*
X167200000Y-92690000D03*
D43*
X143800000Y-104562500D03*
X144200000Y-104562500D03*
X144600000Y-104562500D03*
X145000000Y-104562500D03*
X145400000Y-104562500D03*
X145800000Y-104562500D03*
X146200000Y-104562500D03*
X146600000Y-104562500D03*
X147000000Y-104562500D03*
X147400000Y-104562500D03*
X147800000Y-104562500D03*
X148200000Y-104562500D03*
X148600000Y-104562500D03*
X149000000Y-104562500D03*
D44*
X149837500Y-103725000D03*
X149837500Y-103325000D03*
X149837500Y-102925000D03*
X149837500Y-102525000D03*
X149837500Y-102125000D03*
X149837500Y-101725000D03*
X149837500Y-101325000D03*
X149837500Y-100925000D03*
X149837500Y-100525000D03*
X149837500Y-100125000D03*
X149837500Y-99725000D03*
X149837500Y-99325000D03*
X149837500Y-98925000D03*
X149837500Y-98525000D03*
D43*
X149000000Y-97687500D03*
X148600000Y-97687500D03*
X148200000Y-97687500D03*
X147800000Y-97687500D03*
X147400000Y-97687500D03*
X147000000Y-97687500D03*
X146600000Y-97687500D03*
X146200000Y-97687500D03*
X145800000Y-97687500D03*
X145400000Y-97687500D03*
X145000000Y-97687500D03*
X144600000Y-97687500D03*
X144200000Y-97687500D03*
X143800000Y-97687500D03*
D44*
X142962500Y-98525000D03*
X142962500Y-98925000D03*
X142962500Y-99325000D03*
X142962500Y-99725000D03*
X142962500Y-100125000D03*
X142962500Y-100525000D03*
X142962500Y-100925000D03*
X142962500Y-101325000D03*
X142962500Y-101725000D03*
X142962500Y-102125000D03*
X142962500Y-102525000D03*
X142962500Y-102925000D03*
X142962500Y-103325000D03*
X142962500Y-103725000D03*
D45*
X146400000Y-101125000D03*
D46*
X125600000Y-87125000D03*
X125600000Y-84200000D03*
D21*
X152290000Y-98200000D03*
X153310000Y-98200000D03*
D47*
X137475000Y-87505000D03*
X137475000Y-86235000D03*
X137475000Y-84965000D03*
X137475000Y-83695000D03*
X132525000Y-83695000D03*
X132525000Y-84965000D03*
X132525000Y-86235000D03*
X132525000Y-87505000D03*
D18*
X140480000Y-101725000D03*
X139520000Y-101725000D03*
D19*
X164510000Y-86200000D03*
X163490000Y-86200000D03*
D13*
X132520000Y-90600000D03*
X133480000Y-90600000D03*
D14*
X129200000Y-80600000D03*
X125200000Y-80600000D03*
D36*
X167200000Y-96787500D03*
X167200000Y-95212500D03*
D18*
X140480000Y-100525000D03*
X139520000Y-100525000D03*
D48*
X160125000Y-80695000D03*
X160125000Y-81965000D03*
X160125000Y-83235000D03*
X160125000Y-84505000D03*
X165075000Y-84505000D03*
X165075000Y-83235000D03*
X165075000Y-81965000D03*
X165075000Y-80695000D03*
D21*
X138090000Y-105525000D03*
X139110000Y-105525000D03*
D12*
X142600000Y-95605000D03*
X142600000Y-94645000D03*
D49*
X119200000Y-106450000D03*
X119200000Y-108350000D03*
D13*
X153520000Y-106525000D03*
X154480000Y-106525000D03*
M02*
