M48
; DRILL file {KiCad 7.0.10} date Sat Feb 24 17:37:46 2024
; FORMAT={-:-/ absolute / metric / decimal}
; #@! TF.CreationDate,2024-02-24T17:37:46+01:00
; #@! TF.GenerationSoftware,Kicad,Pcbnew,7.0.10
; #@! TF.FileFunction,Plated,1,4,PTH
FMAT,2
METRIC
; #@! TA.AperFunction,Plated,PTH,ViaDrill
T1C0.300
; #@! TA.AperFunction,Plated,PTH,ComponentDrill
T2C0.600
; #@! TA.AperFunction,Plated,PTH,ComponentDrill
T3C1.000
; #@! TA.AperFunction,Plated,PTH,ComponentDrill
T4C1.200
; #@! TA.AperFunction,Plated,PTH,ComponentDrill
T5C1.600
; #@! TA.AperFunction,Plated,PTH,ComponentDrill
T6C2.000
%
G90
G05
T1
X106.0Y-75.0
X106.0Y-81.0
X106.0Y-95.0
X108.8Y-113.4
X110.0Y-101.0
X110.0Y-103.2
X110.0Y-110.0
X111.0Y-102.0
X111.0Y-109.2
X113.0Y-100.0
X113.2Y-108.0
X114.8Y-113.4
X115.0Y-111.0
X116.6Y-115.8
X116.6Y-117.0
X119.2Y-109.4
X121.8Y-101.2
X124.0Y-104.6
X124.0Y-106.2
X124.8Y-105.4
X125.0Y-75.0
X125.2Y-78.0
X125.2Y-93.0
X126.0Y-102.2
X127.0Y-96.2
X128.2Y-111.175
X130.0Y-111.0
X132.0Y-95.0
X132.0Y-103.0
X132.0Y-112.725
X132.6Y-82.0
X134.4Y-89.2
X134.4Y-90.6
X135.8Y-107.2
X136.6Y-112.725
X138.8Y-96.925
X138.8Y-100.525
X138.8Y-101.725
X139.0Y-107.125
X139.8Y-105.525
X140.0Y-81.0
X140.0Y-89.0
X141.2Y-96.925
X141.2Y-100.525
X141.2Y-101.325
X141.4Y-93.925
X142.0Y-96.525
X142.6Y-93.925
X143.4Y-105.725
X143.4Y-108.325
X143.8Y-93.925
X143.8Y-96.525
X144.0Y-90.4
X144.6Y-89.8
X144.8Y-98.8
X145.6Y-98.8
X145.6Y-100.2
X145.6Y-102.0
X146.4Y-100.2
X146.4Y-101.125
X146.4Y-102.0
X146.8Y-98.8
X147.2Y-100.2
X147.2Y-102.0
X147.4Y-93.925
X147.4Y-96.525
X147.8Y-103.525
X147.8Y-105.725
X147.8Y-108.325
X147.8Y-109.6
X148.0Y-98.8
X148.6Y-103.525
X148.8Y-99.325
X148.8Y-102.725
X149.2Y-107.6
X149.4Y-75.0
X149.4Y-81.0
X149.4Y-89.0
X150.0Y-94.8
X151.0Y-94.8
X151.2Y-105.8
X151.4Y-109.6
X151.6Y-99.925
X151.6Y-100.725
X151.6Y-102.525
X152.0Y-79.0
X152.0Y-108.0
X152.4Y-97.4
X154.0Y-98.2
X154.0Y-99.325
X154.0Y-100.525
X154.0Y-111.0
X154.4Y-108.0
X155.2Y-106.525
X156.2Y-100.6
X156.4Y-101.725
X157.0Y-75.0
X157.0Y-81.0
X157.0Y-87.4
X157.0Y-103.2
X157.0Y-105.0
X157.0Y-108.0
X158.0Y-111.0
X159.8Y-79.0
X161.8Y-84.6
X161.8Y-89.6
X161.8Y-92.0
X161.8Y-93.2
X161.8Y-94.6
X162.4Y-86.2
X165.2Y-91.6
X165.2Y-97.8
X165.4Y-79.0
X165.8Y-87.4
X167.2Y-91.6
X167.2Y-97.8
X172.0Y-79.0
X172.0Y-87.4
X172.0Y-95.0
T3
X119.0Y-118.325
X121.54Y-118.325
X124.08Y-118.325
X126.62Y-118.325
X129.16Y-118.325
X131.7Y-118.325
X134.0Y-76.0
X134.24Y-118.325
X136.54Y-76.0
X136.78Y-118.325
X139.08Y-76.0
X139.32Y-118.325
X141.62Y-76.0
X141.86Y-118.325
X144.4Y-118.325
X146.94Y-118.325
X149.48Y-118.325
X152.02Y-118.325
X154.56Y-118.325
X157.1Y-118.325
X158.75Y-103.5
X158.75Y-106.0
X158.75Y-108.5
X159.64Y-118.325
X161.58Y-76.0
X162.18Y-118.325
X164.12Y-76.0
X164.72Y-118.325
X166.66Y-76.0
X167.26Y-118.325
X169.2Y-76.0
X169.8Y-118.325
X172.2Y-81.325
X172.2Y-83.865
X172.34Y-118.325
X173.25Y-103.5
X173.25Y-108.5
T4
X119.14Y-85.59
T5
X114.69Y-89.4
X115.325Y-81.78
T2
X102.325Y-101.28G85X101.525Y-101.28
G05
X102.325Y-109.92G85X101.525Y-109.92
G05
X106.675Y-101.28G85X105.575Y-101.28
G05
X106.675Y-109.92G85X105.575Y-109.92
G05
T6
X165.7Y-100.4G85X166.8Y-100.4
G05
X165.7Y-111.6G85X166.8Y-111.6
G05
M30
