G04 #@! TF.GenerationSoftware,KiCad,Pcbnew,7.0.10*
G04 #@! TF.CreationDate,2024-02-24T17:37:44+01:00*
G04 #@! TF.ProjectId,rp2040-board,72703230-3430-42d6-926f-6172642e6b69,rev?*
G04 #@! TF.SameCoordinates,Original*
G04 #@! TF.FileFunction,Copper,L4,Bot*
G04 #@! TF.FilePolarity,Positive*
%FSLAX46Y46*%
G04 Gerber Fmt 4.6, Leading zero omitted, Abs format (unit mm)*
G04 Created by KiCad (PCBNEW 7.0.10) date 2024-02-24 17:37:44*
%MOMM*%
%LPD*%
G01*
G04 APERTURE LIST*
G04 Aperture macros list*
%AMRoundRect*
0 Rectangle with rounded corners*
0 $1 Rounding radius*
0 $2 $3 $4 $5 $6 $7 $8 $9 X,Y pos of 4 corners*
0 Add a 4 corners polygon primitive as box body*
4,1,4,$2,$3,$4,$5,$6,$7,$8,$9,$2,$3,0*
0 Add four circle primitives for the rounded corners*
1,1,$1+$1,$2,$3*
1,1,$1+$1,$4,$5*
1,1,$1+$1,$6,$7*
1,1,$1+$1,$8,$9*
0 Add four rect primitives between the rounded corners*
20,1,$1+$1,$2,$3,$4,$5,0*
20,1,$1+$1,$4,$5,$6,$7,0*
20,1,$1+$1,$6,$7,$8,$9,0*
20,1,$1+$1,$8,$9,$2,$3,0*%
G04 Aperture macros list end*
G04 #@! TA.AperFunction,ComponentPad*
%ADD10R,1.700000X1.700000*%
G04 #@! TD*
G04 #@! TA.AperFunction,ComponentPad*
%ADD11O,1.700000X1.700000*%
G04 #@! TD*
G04 #@! TA.AperFunction,ComponentPad*
%ADD12RoundRect,0.250000X-0.550000X-0.550000X0.550000X-0.550000X0.550000X0.550000X-0.550000X0.550000X0*%
G04 #@! TD*
G04 #@! TA.AperFunction,ComponentPad*
%ADD13C,1.600000*%
G04 #@! TD*
G04 #@! TA.AperFunction,ComponentPad*
%ADD14O,4.100000X3.000000*%
G04 #@! TD*
G04 #@! TA.AperFunction,ComponentPad*
%ADD15C,3.400000*%
G04 #@! TD*
G04 #@! TA.AperFunction,ComponentPad*
%ADD16C,2.900000*%
G04 #@! TD*
G04 #@! TA.AperFunction,ComponentPad*
%ADD17O,2.100000X1.000000*%
G04 #@! TD*
G04 #@! TA.AperFunction,ComponentPad*
%ADD18O,1.800000X1.000000*%
G04 #@! TD*
G04 #@! TA.AperFunction,ViaPad*
%ADD19C,0.450000*%
G04 #@! TD*
G04 #@! TA.AperFunction,ViaPad*
%ADD20C,0.600000*%
G04 #@! TD*
G04 #@! TA.AperFunction,Conductor*
%ADD21C,0.200000*%
G04 #@! TD*
G04 APERTURE END LIST*
D10*
X119000000Y-118325000D03*
D11*
X121540000Y-118325000D03*
X124080000Y-118325000D03*
X126620000Y-118325000D03*
X129160000Y-118325000D03*
X131700000Y-118325000D03*
X134240000Y-118325000D03*
X136780000Y-118325000D03*
X139320000Y-118325000D03*
X141860000Y-118325000D03*
X144400000Y-118325000D03*
X146940000Y-118325000D03*
X149480000Y-118325000D03*
X152020000Y-118325000D03*
X154560000Y-118325000D03*
X157100000Y-118325000D03*
X159640000Y-118325000D03*
X162180000Y-118325000D03*
X164720000Y-118325000D03*
X167260000Y-118325000D03*
X169800000Y-118325000D03*
X172340000Y-118325000D03*
D10*
X169200000Y-76000000D03*
D11*
X166660000Y-76000000D03*
X164120000Y-76000000D03*
X161580000Y-76000000D03*
D12*
X158750000Y-103500000D03*
D13*
X158750000Y-108500000D03*
X158750000Y-106000000D03*
X173250000Y-103500000D03*
X173250000Y-108500000D03*
D14*
X166250000Y-100400000D03*
X166250000Y-111600000D03*
D15*
X114690000Y-89400000D03*
X115325000Y-81780000D03*
D16*
X119140000Y-85590000D03*
D17*
X106125000Y-101280000D03*
D18*
X101925000Y-101280000D03*
D17*
X106125000Y-109920000D03*
D18*
X101925000Y-109920000D03*
D10*
X172200000Y-81325000D03*
D11*
X172200000Y-83865000D03*
D10*
X134000000Y-76000000D03*
D11*
X136540000Y-76000000D03*
X139080000Y-76000000D03*
X141620000Y-76000000D03*
D19*
X142000000Y-96525000D03*
D20*
X135800000Y-107200000D03*
X130000000Y-111000000D03*
X124000000Y-106200000D03*
D19*
X147800000Y-105725000D03*
X147400000Y-96525000D03*
X151600000Y-100725000D03*
X143800000Y-96525000D03*
X143400000Y-105725000D03*
X141200000Y-100525000D03*
D20*
X124000000Y-104600000D03*
X124800000Y-105400000D03*
X161800000Y-94600000D03*
X154000000Y-111000000D03*
X146400000Y-102000000D03*
X165800000Y-87400000D03*
X138800000Y-100525000D03*
X149400000Y-81000000D03*
X143400000Y-108325000D03*
X140000000Y-89000000D03*
X145600000Y-102000000D03*
X115000000Y-111000000D03*
X143800000Y-93925000D03*
X106000000Y-81000000D03*
X156400000Y-101725000D03*
X106000000Y-95000000D03*
X125200000Y-93000000D03*
X132000000Y-95000000D03*
X172000000Y-79000000D03*
X154400000Y-108000000D03*
D19*
X151600000Y-102525000D03*
D20*
X147200000Y-100200000D03*
X161800000Y-84600000D03*
X114800000Y-113400000D03*
X106000000Y-75000000D03*
X157000000Y-103200000D03*
X157000000Y-108000000D03*
X110000000Y-110000000D03*
X156200000Y-100600000D03*
X141400000Y-93925000D03*
X139000000Y-107125000D03*
X157000000Y-105000000D03*
X155200000Y-106525000D03*
X161800000Y-93200000D03*
X167200000Y-97800000D03*
X147400000Y-93925000D03*
X172000000Y-95000000D03*
X161800000Y-92000000D03*
X146400000Y-101125000D03*
X172000000Y-87400000D03*
X154000000Y-99325000D03*
X149400000Y-75000000D03*
X157000000Y-87400000D03*
X136600000Y-112725000D03*
X165400000Y-79000000D03*
X157000000Y-81000000D03*
X134400000Y-90600000D03*
X158000000Y-111000000D03*
X152000000Y-108000000D03*
X161800000Y-89600000D03*
X138800000Y-96925000D03*
X138800000Y-101725000D03*
X146400000Y-100200000D03*
X157000000Y-75000000D03*
X111000000Y-102000000D03*
X125200000Y-78000000D03*
X142600000Y-93925000D03*
X125000000Y-75000000D03*
X110000000Y-101000000D03*
X154000000Y-100525000D03*
X132000000Y-103000000D03*
X151200000Y-105800000D03*
X113000000Y-100000000D03*
X121800000Y-101200000D03*
X132000000Y-112725000D03*
X132600000Y-82000000D03*
X111000000Y-109200000D03*
X145600000Y-100200000D03*
X140000000Y-81000000D03*
X165200000Y-97800000D03*
X128200000Y-111175000D03*
X159800000Y-79000000D03*
X134400000Y-89200000D03*
X149400000Y-89000000D03*
X147200000Y-102000000D03*
X119200000Y-109400000D03*
X108800000Y-113400000D03*
X147800000Y-108325000D03*
D19*
X151600000Y-99925000D03*
X141200000Y-96925000D03*
X141200000Y-101325000D03*
D20*
X152000000Y-79000000D03*
X126000000Y-102200000D03*
X127000000Y-96200000D03*
D19*
X144000000Y-90400000D03*
X144600000Y-89800000D03*
X152400000Y-97400000D03*
X148800000Y-99325000D03*
D20*
X110000000Y-103200000D03*
X113200000Y-108000000D03*
D19*
X139800000Y-105525000D03*
X116600000Y-115800000D03*
X154000000Y-98200000D03*
X116600000Y-117000000D03*
X145600000Y-98800000D03*
X165200000Y-91600000D03*
X144800000Y-98800000D03*
X167200000Y-91600000D03*
X151000000Y-94800000D03*
X150000000Y-94800000D03*
X148000000Y-98800000D03*
X146800000Y-98800000D03*
X162400000Y-86200000D03*
X147800000Y-103525000D03*
X147800000Y-109600000D03*
X148600000Y-103525000D03*
X149200000Y-107600000D03*
X151400000Y-109600000D03*
X148800000Y-102725000D03*
D21*
X144000000Y-90400000D02*
X139080000Y-85480000D01*
X139080000Y-85480000D02*
X139080000Y-76000000D01*
X144600000Y-89800000D02*
X141620000Y-86820000D01*
X141620000Y-86820000D02*
X141620000Y-76000000D01*
X150475000Y-99325000D02*
X152400000Y-97400000D01*
X148800000Y-99325000D02*
X150475000Y-99325000D01*
X139800000Y-110600000D02*
X139800000Y-105525000D01*
X136000000Y-114400000D02*
X139800000Y-110600000D01*
X116600000Y-115800000D02*
X118000000Y-114400000D01*
X118000000Y-114400000D02*
X136000000Y-114400000D01*
X146448529Y-115400000D02*
X118200000Y-115400000D01*
X153400000Y-108448529D02*
X146448529Y-115400000D01*
X118200000Y-115400000D02*
X116600000Y-117000000D01*
X154000000Y-98200000D02*
X153400000Y-98800000D01*
X153400000Y-98800000D02*
X153400000Y-108448529D01*
X164400000Y-90800000D02*
X165200000Y-91600000D01*
X164400000Y-85000000D02*
X164400000Y-90800000D01*
X145600000Y-98800000D02*
X145750000Y-98650000D01*
X145750000Y-87200000D02*
X149350000Y-83600000D01*
X149350000Y-83600000D02*
X163000000Y-83600000D01*
X145750000Y-98650000D02*
X145750000Y-87200000D01*
X163000000Y-83600000D02*
X164400000Y-85000000D01*
X145350000Y-97450000D02*
X144800000Y-98000000D01*
X164800000Y-84834314D02*
X163165686Y-83200000D01*
X144800000Y-98000000D02*
X144800000Y-98800000D01*
X167200000Y-91600000D02*
X164800000Y-89200000D01*
X164800000Y-89200000D02*
X164800000Y-84834314D01*
X149184314Y-83200000D02*
X145350000Y-87034314D01*
X145350000Y-87034314D02*
X145350000Y-97450000D01*
X163165686Y-83200000D02*
X149184314Y-83200000D01*
X151000000Y-94800000D02*
X153200000Y-94800000D01*
X158750000Y-100350000D02*
X158750000Y-103500000D01*
X153200000Y-94800000D02*
X158750000Y-100350000D01*
X150600000Y-94200000D02*
X150000000Y-94800000D01*
X160400000Y-106850000D02*
X160400000Y-101000000D01*
X158750000Y-108500000D02*
X160400000Y-106850000D01*
X160400000Y-101000000D02*
X153600000Y-94200000D01*
X153600000Y-94200000D02*
X150600000Y-94200000D01*
X150351471Y-93600000D02*
X148000000Y-95951471D01*
X173250000Y-103500000D02*
X163900000Y-103500000D01*
X148000000Y-95951471D02*
X148000000Y-98800000D01*
X154000000Y-93600000D02*
X150351471Y-93600000D01*
X163900000Y-103500000D02*
X154000000Y-93600000D01*
X146800000Y-90751471D02*
X151351471Y-86200000D01*
X146800000Y-98800000D02*
X146800000Y-90751471D01*
X151351471Y-86200000D02*
X162400000Y-86200000D01*
X148400000Y-109000000D02*
X147800000Y-109600000D01*
X147800000Y-104876471D02*
X148400000Y-105476471D01*
X147800000Y-103525000D02*
X147800000Y-104876471D01*
X148400000Y-105476471D02*
X148400000Y-109000000D01*
X148600000Y-103525000D02*
X149200000Y-104125000D01*
X149200000Y-104125000D02*
X149200000Y-107600000D01*
X148800000Y-102725000D02*
X150600000Y-104525000D01*
X150600000Y-104525000D02*
X150600000Y-108800000D01*
X150600000Y-108800000D02*
X151400000Y-109600000D01*
M02*
