G04 #@! TF.GenerationSoftware,KiCad,Pcbnew,7.0.10*
G04 #@! TF.CreationDate,2024-02-24T17:37:44+01:00*
G04 #@! TF.ProjectId,rp2040-board,72703230-3430-42d6-926f-6172642e6b69,rev?*
G04 #@! TF.SameCoordinates,Original*
G04 #@! TF.FileFunction,Copper,L2,Inr*
G04 #@! TF.FilePolarity,Positive*
%FSLAX46Y46*%
G04 Gerber Fmt 4.6, Leading zero omitted, Abs format (unit mm)*
G04 Created by KiCad (PCBNEW 7.0.10) date 2024-02-24 17:37:44*
%MOMM*%
%LPD*%
G01*
G04 APERTURE LIST*
G04 Aperture macros list*
%AMRoundRect*
0 Rectangle with rounded corners*
0 $1 Rounding radius*
0 $2 $3 $4 $5 $6 $7 $8 $9 X,Y pos of 4 corners*
0 Add a 4 corners polygon primitive as box body*
4,1,4,$2,$3,$4,$5,$6,$7,$8,$9,$2,$3,0*
0 Add four circle primitives for the rounded corners*
1,1,$1+$1,$2,$3*
1,1,$1+$1,$4,$5*
1,1,$1+$1,$6,$7*
1,1,$1+$1,$8,$9*
0 Add four rect primitives between the rounded corners*
20,1,$1+$1,$2,$3,$4,$5,0*
20,1,$1+$1,$4,$5,$6,$7,0*
20,1,$1+$1,$6,$7,$8,$9,0*
20,1,$1+$1,$8,$9,$2,$3,0*%
G04 Aperture macros list end*
G04 #@! TA.AperFunction,ComponentPad*
%ADD10R,1.700000X1.700000*%
G04 #@! TD*
G04 #@! TA.AperFunction,ComponentPad*
%ADD11O,1.700000X1.700000*%
G04 #@! TD*
G04 #@! TA.AperFunction,ComponentPad*
%ADD12RoundRect,0.250000X-0.550000X-0.550000X0.550000X-0.550000X0.550000X0.550000X-0.550000X0.550000X0*%
G04 #@! TD*
G04 #@! TA.AperFunction,ComponentPad*
%ADD13C,1.600000*%
G04 #@! TD*
G04 #@! TA.AperFunction,ComponentPad*
%ADD14O,4.100000X3.000000*%
G04 #@! TD*
G04 #@! TA.AperFunction,ComponentPad*
%ADD15C,3.400000*%
G04 #@! TD*
G04 #@! TA.AperFunction,ComponentPad*
%ADD16C,2.900000*%
G04 #@! TD*
G04 #@! TA.AperFunction,ComponentPad*
%ADD17O,2.100000X1.000000*%
G04 #@! TD*
G04 #@! TA.AperFunction,ComponentPad*
%ADD18O,1.800000X1.000000*%
G04 #@! TD*
G04 #@! TA.AperFunction,ViaPad*
%ADD19C,0.450000*%
G04 #@! TD*
G04 #@! TA.AperFunction,ViaPad*
%ADD20C,0.600000*%
G04 #@! TD*
G04 APERTURE END LIST*
D10*
X119000000Y-118325000D03*
D11*
X121540000Y-118325000D03*
X124080000Y-118325000D03*
X126620000Y-118325000D03*
X129160000Y-118325000D03*
X131700000Y-118325000D03*
X134240000Y-118325000D03*
X136780000Y-118325000D03*
X139320000Y-118325000D03*
X141860000Y-118325000D03*
X144400000Y-118325000D03*
X146940000Y-118325000D03*
X149480000Y-118325000D03*
X152020000Y-118325000D03*
X154560000Y-118325000D03*
X157100000Y-118325000D03*
X159640000Y-118325000D03*
X162180000Y-118325000D03*
X164720000Y-118325000D03*
X167260000Y-118325000D03*
X169800000Y-118325000D03*
X172340000Y-118325000D03*
D10*
X169200000Y-76000000D03*
D11*
X166660000Y-76000000D03*
X164120000Y-76000000D03*
X161580000Y-76000000D03*
D12*
X158750000Y-103500000D03*
D13*
X158750000Y-108500000D03*
X158750000Y-106000000D03*
X173250000Y-103500000D03*
X173250000Y-108500000D03*
D14*
X166250000Y-100400000D03*
X166250000Y-111600000D03*
D15*
X114690000Y-89400000D03*
X115325000Y-81780000D03*
D16*
X119140000Y-85590000D03*
D17*
X106125000Y-101280000D03*
D18*
X101925000Y-101280000D03*
D17*
X106125000Y-109920000D03*
D18*
X101925000Y-109920000D03*
D10*
X172200000Y-81325000D03*
D11*
X172200000Y-83865000D03*
D10*
X134000000Y-76000000D03*
D11*
X136540000Y-76000000D03*
X139080000Y-76000000D03*
X141620000Y-76000000D03*
D19*
X142000000Y-96525000D03*
D20*
X135800000Y-107200000D03*
X130000000Y-111000000D03*
X124000000Y-106200000D03*
D19*
X147800000Y-105725000D03*
X147400000Y-96525000D03*
X151600000Y-100725000D03*
X143800000Y-96525000D03*
X143400000Y-105725000D03*
X141200000Y-100525000D03*
D20*
X124000000Y-104600000D03*
X124800000Y-105400000D03*
X161800000Y-94600000D03*
X154000000Y-111000000D03*
X146400000Y-102000000D03*
X165800000Y-87400000D03*
X138800000Y-100525000D03*
X149400000Y-81000000D03*
X143400000Y-108325000D03*
X140000000Y-89000000D03*
X145600000Y-102000000D03*
X115000000Y-111000000D03*
X143800000Y-93925000D03*
X106000000Y-81000000D03*
X156400000Y-101725000D03*
X106000000Y-95000000D03*
X125200000Y-93000000D03*
X132000000Y-95000000D03*
X172000000Y-79000000D03*
X154400000Y-108000000D03*
D19*
X151600000Y-102525000D03*
D20*
X147200000Y-100200000D03*
X161800000Y-84600000D03*
X114800000Y-113400000D03*
X106000000Y-75000000D03*
X157000000Y-103200000D03*
X157000000Y-108000000D03*
X110000000Y-110000000D03*
X156200000Y-100600000D03*
X141400000Y-93925000D03*
X139000000Y-107125000D03*
X157000000Y-105000000D03*
X155200000Y-106525000D03*
X161800000Y-93200000D03*
X167200000Y-97800000D03*
X147400000Y-93925000D03*
X172000000Y-95000000D03*
X161800000Y-92000000D03*
X146400000Y-101125000D03*
X172000000Y-87400000D03*
X154000000Y-99325000D03*
X149400000Y-75000000D03*
X157000000Y-87400000D03*
X136600000Y-112725000D03*
X165400000Y-79000000D03*
X157000000Y-81000000D03*
X134400000Y-90600000D03*
X158000000Y-111000000D03*
X152000000Y-108000000D03*
X161800000Y-89600000D03*
X138800000Y-96925000D03*
X138800000Y-101725000D03*
X146400000Y-100200000D03*
X157000000Y-75000000D03*
X111000000Y-102000000D03*
X125200000Y-78000000D03*
X142600000Y-93925000D03*
X125000000Y-75000000D03*
X110000000Y-101000000D03*
X154000000Y-100525000D03*
X132000000Y-103000000D03*
X151200000Y-105800000D03*
X113000000Y-100000000D03*
X121800000Y-101200000D03*
X132000000Y-112725000D03*
X132600000Y-82000000D03*
X111000000Y-109200000D03*
X145600000Y-100200000D03*
X140000000Y-81000000D03*
X165200000Y-97800000D03*
X128200000Y-111175000D03*
X159800000Y-79000000D03*
X134400000Y-89200000D03*
X149400000Y-89000000D03*
X147200000Y-102000000D03*
X119200000Y-109400000D03*
X108800000Y-113400000D03*
X147800000Y-108325000D03*
D19*
X151600000Y-99925000D03*
X141200000Y-96925000D03*
X141200000Y-101325000D03*
D20*
X152000000Y-79000000D03*
X126000000Y-102200000D03*
X127000000Y-96200000D03*
D19*
X144000000Y-90400000D03*
X144600000Y-89800000D03*
X152400000Y-97400000D03*
X148800000Y-99325000D03*
D20*
X110000000Y-103200000D03*
X113200000Y-108000000D03*
D19*
X139800000Y-105525000D03*
X116600000Y-115800000D03*
X154000000Y-98200000D03*
X116600000Y-117000000D03*
X145600000Y-98800000D03*
X165200000Y-91600000D03*
X144800000Y-98800000D03*
X167200000Y-91600000D03*
X151000000Y-94800000D03*
X150000000Y-94800000D03*
X148000000Y-98800000D03*
X146800000Y-98800000D03*
X162400000Y-86200000D03*
X147800000Y-103525000D03*
X147800000Y-109600000D03*
X148600000Y-103525000D03*
X149200000Y-107600000D03*
X151400000Y-109600000D03*
X148800000Y-102725000D03*
G04 #@! TA.AperFunction,Conductor*
G36*
X174215469Y-72020185D02*
G01*
X174236111Y-72036819D01*
X174963181Y-72763888D01*
X174996666Y-72825211D01*
X174999500Y-72851569D01*
X174999500Y-119148430D01*
X174979815Y-119215469D01*
X174963181Y-119236111D01*
X174236111Y-119963181D01*
X174174788Y-119996666D01*
X174148430Y-119999500D01*
X100851569Y-119999500D01*
X100784530Y-119979815D01*
X100763888Y-119963181D01*
X100036819Y-119236111D01*
X100029589Y-119222870D01*
X117649500Y-119222870D01*
X117649501Y-119222876D01*
X117655908Y-119282483D01*
X117706202Y-119417328D01*
X117706206Y-119417335D01*
X117792452Y-119532544D01*
X117792455Y-119532547D01*
X117907664Y-119618793D01*
X117907671Y-119618797D01*
X118042517Y-119669091D01*
X118042516Y-119669091D01*
X118049444Y-119669835D01*
X118102127Y-119675500D01*
X119897872Y-119675499D01*
X119957483Y-119669091D01*
X120092331Y-119618796D01*
X120207546Y-119532546D01*
X120293796Y-119417331D01*
X120342810Y-119285916D01*
X120384681Y-119229984D01*
X120450145Y-119205566D01*
X120518418Y-119220417D01*
X120546673Y-119241569D01*
X120668599Y-119363495D01*
X120765384Y-119431265D01*
X120862165Y-119499032D01*
X120862167Y-119499033D01*
X120862170Y-119499035D01*
X121076337Y-119598903D01*
X121304592Y-119660063D01*
X121481034Y-119675500D01*
X121539999Y-119680659D01*
X121540000Y-119680659D01*
X121540001Y-119680659D01*
X121598966Y-119675500D01*
X121775408Y-119660063D01*
X122003663Y-119598903D01*
X122217830Y-119499035D01*
X122411401Y-119363495D01*
X122578495Y-119196401D01*
X122708425Y-119010842D01*
X122763002Y-118967217D01*
X122832500Y-118960023D01*
X122894855Y-118991546D01*
X122911575Y-119010842D01*
X123041281Y-119196082D01*
X123041505Y-119196401D01*
X123208599Y-119363495D01*
X123305384Y-119431265D01*
X123402165Y-119499032D01*
X123402167Y-119499033D01*
X123402170Y-119499035D01*
X123616337Y-119598903D01*
X123844592Y-119660063D01*
X124021034Y-119675500D01*
X124079999Y-119680659D01*
X124080000Y-119680659D01*
X124080001Y-119680659D01*
X124138966Y-119675500D01*
X124315408Y-119660063D01*
X124543663Y-119598903D01*
X124757830Y-119499035D01*
X124951401Y-119363495D01*
X125118495Y-119196401D01*
X125248730Y-119010405D01*
X125303307Y-118966781D01*
X125372805Y-118959587D01*
X125435160Y-118991110D01*
X125451879Y-119010405D01*
X125581890Y-119196078D01*
X125748917Y-119363105D01*
X125942421Y-119498600D01*
X126156507Y-119598429D01*
X126156516Y-119598433D01*
X126370000Y-119655634D01*
X126370000Y-118760501D01*
X126477685Y-118809680D01*
X126584237Y-118825000D01*
X126655763Y-118825000D01*
X126762315Y-118809680D01*
X126870000Y-118760501D01*
X126870000Y-119655633D01*
X127083483Y-119598433D01*
X127083492Y-119598429D01*
X127297578Y-119498600D01*
X127491082Y-119363105D01*
X127658105Y-119196082D01*
X127788119Y-119010405D01*
X127842696Y-118966781D01*
X127912195Y-118959588D01*
X127974549Y-118991110D01*
X127991269Y-119010405D01*
X128121505Y-119196401D01*
X128288599Y-119363495D01*
X128385384Y-119431265D01*
X128482165Y-119499032D01*
X128482167Y-119499033D01*
X128482170Y-119499035D01*
X128696337Y-119598903D01*
X128924592Y-119660063D01*
X129101034Y-119675500D01*
X129159999Y-119680659D01*
X129160000Y-119680659D01*
X129160001Y-119680659D01*
X129218966Y-119675500D01*
X129395408Y-119660063D01*
X129623663Y-119598903D01*
X129837830Y-119499035D01*
X130031401Y-119363495D01*
X130198495Y-119196401D01*
X130328425Y-119010842D01*
X130383002Y-118967217D01*
X130452500Y-118960023D01*
X130514855Y-118991546D01*
X130531575Y-119010842D01*
X130661281Y-119196082D01*
X130661505Y-119196401D01*
X130828599Y-119363495D01*
X130925384Y-119431265D01*
X131022165Y-119499032D01*
X131022167Y-119499033D01*
X131022170Y-119499035D01*
X131236337Y-119598903D01*
X131464592Y-119660063D01*
X131641034Y-119675500D01*
X131699999Y-119680659D01*
X131700000Y-119680659D01*
X131700001Y-119680659D01*
X131758966Y-119675500D01*
X131935408Y-119660063D01*
X132163663Y-119598903D01*
X132377830Y-119499035D01*
X132571401Y-119363495D01*
X132738495Y-119196401D01*
X132868425Y-119010842D01*
X132923002Y-118967217D01*
X132992500Y-118960023D01*
X133054855Y-118991546D01*
X133071575Y-119010842D01*
X133201281Y-119196082D01*
X133201505Y-119196401D01*
X133368599Y-119363495D01*
X133465384Y-119431265D01*
X133562165Y-119499032D01*
X133562167Y-119499033D01*
X133562170Y-119499035D01*
X133776337Y-119598903D01*
X134004592Y-119660063D01*
X134181034Y-119675500D01*
X134239999Y-119680659D01*
X134240000Y-119680659D01*
X134240001Y-119680659D01*
X134298966Y-119675500D01*
X134475408Y-119660063D01*
X134703663Y-119598903D01*
X134917830Y-119499035D01*
X135111401Y-119363495D01*
X135278495Y-119196401D01*
X135408425Y-119010842D01*
X135463002Y-118967217D01*
X135532500Y-118960023D01*
X135594855Y-118991546D01*
X135611575Y-119010842D01*
X135741281Y-119196082D01*
X135741505Y-119196401D01*
X135908599Y-119363495D01*
X136005384Y-119431265D01*
X136102165Y-119499032D01*
X136102167Y-119499033D01*
X136102170Y-119499035D01*
X136316337Y-119598903D01*
X136544592Y-119660063D01*
X136721034Y-119675500D01*
X136779999Y-119680659D01*
X136780000Y-119680659D01*
X136780001Y-119680659D01*
X136838966Y-119675500D01*
X137015408Y-119660063D01*
X137243663Y-119598903D01*
X137457830Y-119499035D01*
X137651401Y-119363495D01*
X137818495Y-119196401D01*
X137948425Y-119010842D01*
X138003002Y-118967217D01*
X138072500Y-118960023D01*
X138134855Y-118991546D01*
X138151575Y-119010842D01*
X138281281Y-119196082D01*
X138281505Y-119196401D01*
X138448599Y-119363495D01*
X138545384Y-119431265D01*
X138642165Y-119499032D01*
X138642167Y-119499033D01*
X138642170Y-119499035D01*
X138856337Y-119598903D01*
X139084592Y-119660063D01*
X139261034Y-119675500D01*
X139319999Y-119680659D01*
X139320000Y-119680659D01*
X139320001Y-119680659D01*
X139378966Y-119675500D01*
X139555408Y-119660063D01*
X139783663Y-119598903D01*
X139997830Y-119499035D01*
X140191401Y-119363495D01*
X140358495Y-119196401D01*
X140488425Y-119010842D01*
X140543002Y-118967217D01*
X140612500Y-118960023D01*
X140674855Y-118991546D01*
X140691575Y-119010842D01*
X140821281Y-119196082D01*
X140821505Y-119196401D01*
X140988599Y-119363495D01*
X141085384Y-119431265D01*
X141182165Y-119499032D01*
X141182167Y-119499033D01*
X141182170Y-119499035D01*
X141396337Y-119598903D01*
X141624592Y-119660063D01*
X141801034Y-119675500D01*
X141859999Y-119680659D01*
X141860000Y-119680659D01*
X141860001Y-119680659D01*
X141918966Y-119675500D01*
X142095408Y-119660063D01*
X142323663Y-119598903D01*
X142537830Y-119499035D01*
X142731401Y-119363495D01*
X142898495Y-119196401D01*
X143028425Y-119010842D01*
X143083002Y-118967217D01*
X143152500Y-118960023D01*
X143214855Y-118991546D01*
X143231575Y-119010842D01*
X143361281Y-119196082D01*
X143361505Y-119196401D01*
X143528599Y-119363495D01*
X143625384Y-119431265D01*
X143722165Y-119499032D01*
X143722167Y-119499033D01*
X143722170Y-119499035D01*
X143936337Y-119598903D01*
X144164592Y-119660063D01*
X144341034Y-119675500D01*
X144399999Y-119680659D01*
X144400000Y-119680659D01*
X144400001Y-119680659D01*
X144458966Y-119675500D01*
X144635408Y-119660063D01*
X144863663Y-119598903D01*
X145077830Y-119499035D01*
X145271401Y-119363495D01*
X145438495Y-119196401D01*
X145568425Y-119010842D01*
X145623002Y-118967217D01*
X145692500Y-118960023D01*
X145754855Y-118991546D01*
X145771575Y-119010842D01*
X145901281Y-119196082D01*
X145901505Y-119196401D01*
X146068599Y-119363495D01*
X146165384Y-119431265D01*
X146262165Y-119499032D01*
X146262167Y-119499033D01*
X146262170Y-119499035D01*
X146476337Y-119598903D01*
X146704592Y-119660063D01*
X146881034Y-119675500D01*
X146939999Y-119680659D01*
X146940000Y-119680659D01*
X146940001Y-119680659D01*
X146998966Y-119675500D01*
X147175408Y-119660063D01*
X147403663Y-119598903D01*
X147617830Y-119499035D01*
X147811401Y-119363495D01*
X147978495Y-119196401D01*
X148108730Y-119010405D01*
X148163307Y-118966781D01*
X148232805Y-118959587D01*
X148295160Y-118991110D01*
X148311879Y-119010405D01*
X148441890Y-119196078D01*
X148608917Y-119363105D01*
X148802421Y-119498600D01*
X149016507Y-119598429D01*
X149016516Y-119598433D01*
X149230000Y-119655634D01*
X149230000Y-118760501D01*
X149337685Y-118809680D01*
X149444237Y-118825000D01*
X149515763Y-118825000D01*
X149622315Y-118809680D01*
X149730000Y-118760501D01*
X149730000Y-119655633D01*
X149943483Y-119598433D01*
X149943492Y-119598429D01*
X150157578Y-119498600D01*
X150351082Y-119363105D01*
X150518105Y-119196082D01*
X150648119Y-119010405D01*
X150702696Y-118966781D01*
X150772195Y-118959588D01*
X150834549Y-118991110D01*
X150851269Y-119010405D01*
X150981505Y-119196401D01*
X151148599Y-119363495D01*
X151245384Y-119431265D01*
X151342165Y-119499032D01*
X151342167Y-119499033D01*
X151342170Y-119499035D01*
X151556337Y-119598903D01*
X151784592Y-119660063D01*
X151961034Y-119675500D01*
X152019999Y-119680659D01*
X152020000Y-119680659D01*
X152020001Y-119680659D01*
X152078966Y-119675500D01*
X152255408Y-119660063D01*
X152483663Y-119598903D01*
X152697830Y-119499035D01*
X152891401Y-119363495D01*
X153058495Y-119196401D01*
X153188425Y-119010842D01*
X153243002Y-118967217D01*
X153312500Y-118960023D01*
X153374855Y-118991546D01*
X153391575Y-119010842D01*
X153521281Y-119196082D01*
X153521505Y-119196401D01*
X153688599Y-119363495D01*
X153785384Y-119431265D01*
X153882165Y-119499032D01*
X153882167Y-119499033D01*
X153882170Y-119499035D01*
X154096337Y-119598903D01*
X154324592Y-119660063D01*
X154501034Y-119675500D01*
X154559999Y-119680659D01*
X154560000Y-119680659D01*
X154560001Y-119680659D01*
X154618966Y-119675500D01*
X154795408Y-119660063D01*
X155023663Y-119598903D01*
X155237830Y-119499035D01*
X155431401Y-119363495D01*
X155598495Y-119196401D01*
X155728425Y-119010842D01*
X155783002Y-118967217D01*
X155852500Y-118960023D01*
X155914855Y-118991546D01*
X155931575Y-119010842D01*
X156061281Y-119196082D01*
X156061505Y-119196401D01*
X156228599Y-119363495D01*
X156325384Y-119431265D01*
X156422165Y-119499032D01*
X156422167Y-119499033D01*
X156422170Y-119499035D01*
X156636337Y-119598903D01*
X156864592Y-119660063D01*
X157041034Y-119675500D01*
X157099999Y-119680659D01*
X157100000Y-119680659D01*
X157100001Y-119680659D01*
X157158966Y-119675500D01*
X157335408Y-119660063D01*
X157563663Y-119598903D01*
X157777830Y-119499035D01*
X157971401Y-119363495D01*
X158138495Y-119196401D01*
X158268425Y-119010842D01*
X158323002Y-118967217D01*
X158392500Y-118960023D01*
X158454855Y-118991546D01*
X158471575Y-119010842D01*
X158601281Y-119196082D01*
X158601505Y-119196401D01*
X158768599Y-119363495D01*
X158865384Y-119431265D01*
X158962165Y-119499032D01*
X158962167Y-119499033D01*
X158962170Y-119499035D01*
X159176337Y-119598903D01*
X159404592Y-119660063D01*
X159581034Y-119675500D01*
X159639999Y-119680659D01*
X159640000Y-119680659D01*
X159640001Y-119680659D01*
X159698966Y-119675500D01*
X159875408Y-119660063D01*
X160103663Y-119598903D01*
X160317830Y-119499035D01*
X160511401Y-119363495D01*
X160678495Y-119196401D01*
X160808425Y-119010842D01*
X160863002Y-118967217D01*
X160932500Y-118960023D01*
X160994855Y-118991546D01*
X161011575Y-119010842D01*
X161141281Y-119196082D01*
X161141505Y-119196401D01*
X161308599Y-119363495D01*
X161405384Y-119431265D01*
X161502165Y-119499032D01*
X161502167Y-119499033D01*
X161502170Y-119499035D01*
X161716337Y-119598903D01*
X161944592Y-119660063D01*
X162121034Y-119675500D01*
X162179999Y-119680659D01*
X162180000Y-119680659D01*
X162180001Y-119680659D01*
X162238966Y-119675500D01*
X162415408Y-119660063D01*
X162643663Y-119598903D01*
X162857830Y-119499035D01*
X163051401Y-119363495D01*
X163218495Y-119196401D01*
X163348425Y-119010842D01*
X163403002Y-118967217D01*
X163472500Y-118960023D01*
X163534855Y-118991546D01*
X163551575Y-119010842D01*
X163681281Y-119196082D01*
X163681505Y-119196401D01*
X163848599Y-119363495D01*
X163945384Y-119431265D01*
X164042165Y-119499032D01*
X164042167Y-119499033D01*
X164042170Y-119499035D01*
X164256337Y-119598903D01*
X164484592Y-119660063D01*
X164661034Y-119675500D01*
X164719999Y-119680659D01*
X164720000Y-119680659D01*
X164720001Y-119680659D01*
X164778966Y-119675500D01*
X164955408Y-119660063D01*
X165183663Y-119598903D01*
X165397830Y-119499035D01*
X165591401Y-119363495D01*
X165758495Y-119196401D01*
X165888425Y-119010842D01*
X165943002Y-118967217D01*
X166012500Y-118960023D01*
X166074855Y-118991546D01*
X166091575Y-119010842D01*
X166221281Y-119196082D01*
X166221505Y-119196401D01*
X166388599Y-119363495D01*
X166485384Y-119431265D01*
X166582165Y-119499032D01*
X166582167Y-119499033D01*
X166582170Y-119499035D01*
X166796337Y-119598903D01*
X167024592Y-119660063D01*
X167201034Y-119675500D01*
X167259999Y-119680659D01*
X167260000Y-119680659D01*
X167260001Y-119680659D01*
X167318966Y-119675500D01*
X167495408Y-119660063D01*
X167723663Y-119598903D01*
X167937830Y-119499035D01*
X168131401Y-119363495D01*
X168298495Y-119196401D01*
X168428425Y-119010842D01*
X168483002Y-118967217D01*
X168552500Y-118960023D01*
X168614855Y-118991546D01*
X168631575Y-119010842D01*
X168761281Y-119196082D01*
X168761505Y-119196401D01*
X168928599Y-119363495D01*
X169025384Y-119431265D01*
X169122165Y-119499032D01*
X169122167Y-119499033D01*
X169122170Y-119499035D01*
X169336337Y-119598903D01*
X169564592Y-119660063D01*
X169741034Y-119675500D01*
X169799999Y-119680659D01*
X169800000Y-119680659D01*
X169800001Y-119680659D01*
X169858966Y-119675500D01*
X170035408Y-119660063D01*
X170263663Y-119598903D01*
X170477830Y-119499035D01*
X170671401Y-119363495D01*
X170838495Y-119196401D01*
X170968730Y-119010405D01*
X171023307Y-118966781D01*
X171092805Y-118959587D01*
X171155160Y-118991110D01*
X171171879Y-119010405D01*
X171301890Y-119196078D01*
X171468917Y-119363105D01*
X171662421Y-119498600D01*
X171876507Y-119598429D01*
X171876516Y-119598433D01*
X172090000Y-119655634D01*
X172090000Y-118760501D01*
X172197685Y-118809680D01*
X172304237Y-118825000D01*
X172375763Y-118825000D01*
X172482315Y-118809680D01*
X172590000Y-118760501D01*
X172590000Y-119655633D01*
X172803483Y-119598433D01*
X172803492Y-119598429D01*
X173017578Y-119498600D01*
X173211082Y-119363105D01*
X173378105Y-119196082D01*
X173513600Y-119002578D01*
X173613429Y-118788492D01*
X173613432Y-118788486D01*
X173670636Y-118575000D01*
X172773686Y-118575000D01*
X172799493Y-118534844D01*
X172840000Y-118396889D01*
X172840000Y-118253111D01*
X172799493Y-118115156D01*
X172773686Y-118075000D01*
X173670636Y-118075000D01*
X173670635Y-118074999D01*
X173613432Y-117861513D01*
X173613429Y-117861507D01*
X173513600Y-117647422D01*
X173513599Y-117647420D01*
X173378113Y-117453926D01*
X173378108Y-117453920D01*
X173211082Y-117286894D01*
X173017578Y-117151399D01*
X172803492Y-117051570D01*
X172803486Y-117051567D01*
X172590000Y-116994364D01*
X172590000Y-117889498D01*
X172482315Y-117840320D01*
X172375763Y-117825000D01*
X172304237Y-117825000D01*
X172197685Y-117840320D01*
X172090000Y-117889498D01*
X172090000Y-116994364D01*
X172089999Y-116994364D01*
X171876513Y-117051567D01*
X171876507Y-117051570D01*
X171662422Y-117151399D01*
X171662420Y-117151400D01*
X171468926Y-117286886D01*
X171468920Y-117286891D01*
X171301891Y-117453920D01*
X171301890Y-117453922D01*
X171171880Y-117639595D01*
X171117303Y-117683219D01*
X171047804Y-117690412D01*
X170985450Y-117658890D01*
X170968730Y-117639594D01*
X170838494Y-117453597D01*
X170671402Y-117286506D01*
X170671395Y-117286501D01*
X170477834Y-117150967D01*
X170477830Y-117150965D01*
X170477828Y-117150964D01*
X170263663Y-117051097D01*
X170263659Y-117051096D01*
X170263655Y-117051094D01*
X170035413Y-116989938D01*
X170035403Y-116989936D01*
X169800001Y-116969341D01*
X169799999Y-116969341D01*
X169564596Y-116989936D01*
X169564586Y-116989938D01*
X169336344Y-117051094D01*
X169336335Y-117051098D01*
X169122171Y-117150964D01*
X169122169Y-117150965D01*
X168928597Y-117286505D01*
X168761505Y-117453597D01*
X168631575Y-117639158D01*
X168576998Y-117682783D01*
X168507500Y-117689977D01*
X168445145Y-117658454D01*
X168428425Y-117639158D01*
X168298494Y-117453597D01*
X168131402Y-117286506D01*
X168131395Y-117286501D01*
X167937834Y-117150967D01*
X167937830Y-117150965D01*
X167937828Y-117150964D01*
X167723663Y-117051097D01*
X167723659Y-117051096D01*
X167723655Y-117051094D01*
X167495413Y-116989938D01*
X167495403Y-116989936D01*
X167260001Y-116969341D01*
X167259999Y-116969341D01*
X167024596Y-116989936D01*
X167024586Y-116989938D01*
X166796344Y-117051094D01*
X166796335Y-117051098D01*
X166582171Y-117150964D01*
X166582169Y-117150965D01*
X166388597Y-117286505D01*
X166221505Y-117453597D01*
X166091575Y-117639158D01*
X166036998Y-117682783D01*
X165967500Y-117689977D01*
X165905145Y-117658454D01*
X165888425Y-117639158D01*
X165758494Y-117453597D01*
X165591402Y-117286506D01*
X165591395Y-117286501D01*
X165397834Y-117150967D01*
X165397830Y-117150965D01*
X165397828Y-117150964D01*
X165183663Y-117051097D01*
X165183659Y-117051096D01*
X165183655Y-117051094D01*
X164955413Y-116989938D01*
X164955403Y-116989936D01*
X164720001Y-116969341D01*
X164719999Y-116969341D01*
X164484596Y-116989936D01*
X164484586Y-116989938D01*
X164256344Y-117051094D01*
X164256335Y-117051098D01*
X164042171Y-117150964D01*
X164042169Y-117150965D01*
X163848597Y-117286505D01*
X163681505Y-117453597D01*
X163551575Y-117639158D01*
X163496998Y-117682783D01*
X163427500Y-117689977D01*
X163365145Y-117658454D01*
X163348425Y-117639158D01*
X163218494Y-117453597D01*
X163051402Y-117286506D01*
X163051395Y-117286501D01*
X162857834Y-117150967D01*
X162857830Y-117150965D01*
X162857828Y-117150964D01*
X162643663Y-117051097D01*
X162643659Y-117051096D01*
X162643655Y-117051094D01*
X162415413Y-116989938D01*
X162415403Y-116989936D01*
X162180001Y-116969341D01*
X162179999Y-116969341D01*
X161944596Y-116989936D01*
X161944586Y-116989938D01*
X161716344Y-117051094D01*
X161716335Y-117051098D01*
X161502171Y-117150964D01*
X161502169Y-117150965D01*
X161308597Y-117286505D01*
X161141505Y-117453597D01*
X161011575Y-117639158D01*
X160956998Y-117682783D01*
X160887500Y-117689977D01*
X160825145Y-117658454D01*
X160808425Y-117639158D01*
X160678494Y-117453597D01*
X160511402Y-117286506D01*
X160511395Y-117286501D01*
X160317834Y-117150967D01*
X160317830Y-117150965D01*
X160317828Y-117150964D01*
X160103663Y-117051097D01*
X160103659Y-117051096D01*
X160103655Y-117051094D01*
X159875413Y-116989938D01*
X159875403Y-116989936D01*
X159640001Y-116969341D01*
X159639999Y-116969341D01*
X159404596Y-116989936D01*
X159404586Y-116989938D01*
X159176344Y-117051094D01*
X159176335Y-117051098D01*
X158962171Y-117150964D01*
X158962169Y-117150965D01*
X158768597Y-117286505D01*
X158601505Y-117453597D01*
X158471575Y-117639158D01*
X158416998Y-117682783D01*
X158347500Y-117689977D01*
X158285145Y-117658454D01*
X158268425Y-117639158D01*
X158138494Y-117453597D01*
X157971402Y-117286506D01*
X157971395Y-117286501D01*
X157777834Y-117150967D01*
X157777830Y-117150965D01*
X157777828Y-117150964D01*
X157563663Y-117051097D01*
X157563659Y-117051096D01*
X157563655Y-117051094D01*
X157335413Y-116989938D01*
X157335403Y-116989936D01*
X157100001Y-116969341D01*
X157099999Y-116969341D01*
X156864596Y-116989936D01*
X156864586Y-116989938D01*
X156636344Y-117051094D01*
X156636335Y-117051098D01*
X156422171Y-117150964D01*
X156422169Y-117150965D01*
X156228597Y-117286505D01*
X156061505Y-117453597D01*
X155931575Y-117639158D01*
X155876998Y-117682783D01*
X155807500Y-117689977D01*
X155745145Y-117658454D01*
X155728425Y-117639158D01*
X155598494Y-117453597D01*
X155431402Y-117286506D01*
X155431395Y-117286501D01*
X155237834Y-117150967D01*
X155237830Y-117150965D01*
X155237828Y-117150964D01*
X155023663Y-117051097D01*
X155023659Y-117051096D01*
X155023655Y-117051094D01*
X154795413Y-116989938D01*
X154795403Y-116989936D01*
X154560001Y-116969341D01*
X154559999Y-116969341D01*
X154324596Y-116989936D01*
X154324586Y-116989938D01*
X154096344Y-117051094D01*
X154096335Y-117051098D01*
X153882171Y-117150964D01*
X153882169Y-117150965D01*
X153688597Y-117286505D01*
X153521505Y-117453597D01*
X153391575Y-117639158D01*
X153336998Y-117682783D01*
X153267500Y-117689977D01*
X153205145Y-117658454D01*
X153188425Y-117639158D01*
X153058494Y-117453597D01*
X152891402Y-117286506D01*
X152891395Y-117286501D01*
X152697834Y-117150967D01*
X152697830Y-117150965D01*
X152697828Y-117150964D01*
X152483663Y-117051097D01*
X152483659Y-117051096D01*
X152483655Y-117051094D01*
X152255413Y-116989938D01*
X152255403Y-116989936D01*
X152020001Y-116969341D01*
X152019999Y-116969341D01*
X151784596Y-116989936D01*
X151784586Y-116989938D01*
X151556344Y-117051094D01*
X151556335Y-117051098D01*
X151342171Y-117150964D01*
X151342169Y-117150965D01*
X151148597Y-117286505D01*
X150981508Y-117453594D01*
X150851269Y-117639595D01*
X150796692Y-117683219D01*
X150727193Y-117690412D01*
X150664839Y-117658890D01*
X150648119Y-117639594D01*
X150518113Y-117453926D01*
X150518108Y-117453920D01*
X150351082Y-117286894D01*
X150157578Y-117151399D01*
X149943492Y-117051570D01*
X149943486Y-117051567D01*
X149730000Y-116994364D01*
X149730000Y-117889498D01*
X149622315Y-117840320D01*
X149515763Y-117825000D01*
X149444237Y-117825000D01*
X149337685Y-117840320D01*
X149230000Y-117889498D01*
X149230000Y-116994364D01*
X149229999Y-116994364D01*
X149016513Y-117051567D01*
X149016507Y-117051570D01*
X148802422Y-117151399D01*
X148802420Y-117151400D01*
X148608926Y-117286886D01*
X148608920Y-117286891D01*
X148441891Y-117453920D01*
X148441890Y-117453922D01*
X148311880Y-117639595D01*
X148257303Y-117683219D01*
X148187804Y-117690412D01*
X148125450Y-117658890D01*
X148108730Y-117639594D01*
X147978494Y-117453597D01*
X147811402Y-117286506D01*
X147811395Y-117286501D01*
X147617834Y-117150967D01*
X147617830Y-117150965D01*
X147617828Y-117150964D01*
X147403663Y-117051097D01*
X147403659Y-117051096D01*
X147403655Y-117051094D01*
X147175413Y-116989938D01*
X147175403Y-116989936D01*
X146940001Y-116969341D01*
X146939999Y-116969341D01*
X146704596Y-116989936D01*
X146704586Y-116989938D01*
X146476344Y-117051094D01*
X146476335Y-117051098D01*
X146262171Y-117150964D01*
X146262169Y-117150965D01*
X146068597Y-117286505D01*
X145901505Y-117453597D01*
X145771575Y-117639158D01*
X145716998Y-117682783D01*
X145647500Y-117689977D01*
X145585145Y-117658454D01*
X145568425Y-117639158D01*
X145438494Y-117453597D01*
X145271402Y-117286506D01*
X145271395Y-117286501D01*
X145077834Y-117150967D01*
X145077830Y-117150965D01*
X145077828Y-117150964D01*
X144863663Y-117051097D01*
X144863659Y-117051096D01*
X144863655Y-117051094D01*
X144635413Y-116989938D01*
X144635403Y-116989936D01*
X144400001Y-116969341D01*
X144399999Y-116969341D01*
X144164596Y-116989936D01*
X144164586Y-116989938D01*
X143936344Y-117051094D01*
X143936335Y-117051098D01*
X143722171Y-117150964D01*
X143722169Y-117150965D01*
X143528597Y-117286505D01*
X143361505Y-117453597D01*
X143231575Y-117639158D01*
X143176998Y-117682783D01*
X143107500Y-117689977D01*
X143045145Y-117658454D01*
X143028425Y-117639158D01*
X142898494Y-117453597D01*
X142731402Y-117286506D01*
X142731395Y-117286501D01*
X142537834Y-117150967D01*
X142537830Y-117150965D01*
X142537828Y-117150964D01*
X142323663Y-117051097D01*
X142323659Y-117051096D01*
X142323655Y-117051094D01*
X142095413Y-116989938D01*
X142095403Y-116989936D01*
X141860001Y-116969341D01*
X141859999Y-116969341D01*
X141624596Y-116989936D01*
X141624586Y-116989938D01*
X141396344Y-117051094D01*
X141396335Y-117051098D01*
X141182171Y-117150964D01*
X141182169Y-117150965D01*
X140988597Y-117286505D01*
X140821505Y-117453597D01*
X140691575Y-117639158D01*
X140636998Y-117682783D01*
X140567500Y-117689977D01*
X140505145Y-117658454D01*
X140488425Y-117639158D01*
X140358494Y-117453597D01*
X140191402Y-117286506D01*
X140191395Y-117286501D01*
X139997834Y-117150967D01*
X139997830Y-117150965D01*
X139997828Y-117150964D01*
X139783663Y-117051097D01*
X139783659Y-117051096D01*
X139783655Y-117051094D01*
X139555413Y-116989938D01*
X139555403Y-116989936D01*
X139320001Y-116969341D01*
X139319999Y-116969341D01*
X139084596Y-116989936D01*
X139084586Y-116989938D01*
X138856344Y-117051094D01*
X138856335Y-117051098D01*
X138642171Y-117150964D01*
X138642169Y-117150965D01*
X138448597Y-117286505D01*
X138281505Y-117453597D01*
X138151575Y-117639158D01*
X138096998Y-117682783D01*
X138027500Y-117689977D01*
X137965145Y-117658454D01*
X137948425Y-117639158D01*
X137818494Y-117453597D01*
X137651402Y-117286506D01*
X137651395Y-117286501D01*
X137457834Y-117150967D01*
X137457830Y-117150965D01*
X137457828Y-117150964D01*
X137243663Y-117051097D01*
X137243659Y-117051096D01*
X137243655Y-117051094D01*
X137015413Y-116989938D01*
X137015403Y-116989936D01*
X136780001Y-116969341D01*
X136779999Y-116969341D01*
X136544596Y-116989936D01*
X136544586Y-116989938D01*
X136316344Y-117051094D01*
X136316335Y-117051098D01*
X136102171Y-117150964D01*
X136102169Y-117150965D01*
X135908597Y-117286505D01*
X135741505Y-117453597D01*
X135611575Y-117639158D01*
X135556998Y-117682783D01*
X135487500Y-117689977D01*
X135425145Y-117658454D01*
X135408425Y-117639158D01*
X135278494Y-117453597D01*
X135111402Y-117286506D01*
X135111395Y-117286501D01*
X134917834Y-117150967D01*
X134917830Y-117150965D01*
X134917828Y-117150964D01*
X134703663Y-117051097D01*
X134703659Y-117051096D01*
X134703655Y-117051094D01*
X134475413Y-116989938D01*
X134475403Y-116989936D01*
X134240001Y-116969341D01*
X134239999Y-116969341D01*
X134004596Y-116989936D01*
X134004586Y-116989938D01*
X133776344Y-117051094D01*
X133776335Y-117051098D01*
X133562171Y-117150964D01*
X133562169Y-117150965D01*
X133368597Y-117286505D01*
X133201505Y-117453597D01*
X133071575Y-117639158D01*
X133016998Y-117682783D01*
X132947500Y-117689977D01*
X132885145Y-117658454D01*
X132868425Y-117639158D01*
X132738494Y-117453597D01*
X132571402Y-117286506D01*
X132571395Y-117286501D01*
X132377834Y-117150967D01*
X132377830Y-117150965D01*
X132377828Y-117150964D01*
X132163663Y-117051097D01*
X132163659Y-117051096D01*
X132163655Y-117051094D01*
X131935413Y-116989938D01*
X131935403Y-116989936D01*
X131700001Y-116969341D01*
X131699999Y-116969341D01*
X131464596Y-116989936D01*
X131464586Y-116989938D01*
X131236344Y-117051094D01*
X131236335Y-117051098D01*
X131022171Y-117150964D01*
X131022169Y-117150965D01*
X130828597Y-117286505D01*
X130661505Y-117453597D01*
X130531575Y-117639158D01*
X130476998Y-117682783D01*
X130407500Y-117689977D01*
X130345145Y-117658454D01*
X130328425Y-117639158D01*
X130198494Y-117453597D01*
X130031402Y-117286506D01*
X130031395Y-117286501D01*
X129837834Y-117150967D01*
X129837830Y-117150965D01*
X129837828Y-117150964D01*
X129623663Y-117051097D01*
X129623659Y-117051096D01*
X129623655Y-117051094D01*
X129395413Y-116989938D01*
X129395403Y-116989936D01*
X129160001Y-116969341D01*
X129159999Y-116969341D01*
X128924596Y-116989936D01*
X128924586Y-116989938D01*
X128696344Y-117051094D01*
X128696335Y-117051098D01*
X128482171Y-117150964D01*
X128482169Y-117150965D01*
X128288597Y-117286505D01*
X128121508Y-117453594D01*
X127991269Y-117639595D01*
X127936692Y-117683219D01*
X127867193Y-117690412D01*
X127804839Y-117658890D01*
X127788119Y-117639594D01*
X127658113Y-117453926D01*
X127658108Y-117453920D01*
X127491082Y-117286894D01*
X127297578Y-117151399D01*
X127083492Y-117051570D01*
X127083486Y-117051567D01*
X126870000Y-116994364D01*
X126870000Y-117889498D01*
X126762315Y-117840320D01*
X126655763Y-117825000D01*
X126584237Y-117825000D01*
X126477685Y-117840320D01*
X126370000Y-117889498D01*
X126370000Y-116994364D01*
X126369999Y-116994364D01*
X126156513Y-117051567D01*
X126156507Y-117051570D01*
X125942422Y-117151399D01*
X125942420Y-117151400D01*
X125748926Y-117286886D01*
X125748920Y-117286891D01*
X125581891Y-117453920D01*
X125581890Y-117453922D01*
X125451880Y-117639595D01*
X125397303Y-117683219D01*
X125327804Y-117690412D01*
X125265450Y-117658890D01*
X125248730Y-117639594D01*
X125118494Y-117453597D01*
X124951402Y-117286506D01*
X124951395Y-117286501D01*
X124757834Y-117150967D01*
X124757830Y-117150965D01*
X124757828Y-117150964D01*
X124543663Y-117051097D01*
X124543659Y-117051096D01*
X124543655Y-117051094D01*
X124315413Y-116989938D01*
X124315403Y-116989936D01*
X124080001Y-116969341D01*
X124079999Y-116969341D01*
X123844596Y-116989936D01*
X123844586Y-116989938D01*
X123616344Y-117051094D01*
X123616335Y-117051098D01*
X123402171Y-117150964D01*
X123402169Y-117150965D01*
X123208597Y-117286505D01*
X123041505Y-117453597D01*
X122911575Y-117639158D01*
X122856998Y-117682783D01*
X122787500Y-117689977D01*
X122725145Y-117658454D01*
X122708425Y-117639158D01*
X122578494Y-117453597D01*
X122411402Y-117286506D01*
X122411395Y-117286501D01*
X122217834Y-117150967D01*
X122217830Y-117150965D01*
X122217828Y-117150964D01*
X122003663Y-117051097D01*
X122003659Y-117051096D01*
X122003655Y-117051094D01*
X121775413Y-116989938D01*
X121775403Y-116989936D01*
X121540001Y-116969341D01*
X121539999Y-116969341D01*
X121304596Y-116989936D01*
X121304586Y-116989938D01*
X121076344Y-117051094D01*
X121076335Y-117051098D01*
X120862171Y-117150964D01*
X120862169Y-117150965D01*
X120668600Y-117286503D01*
X120546673Y-117408430D01*
X120485350Y-117441914D01*
X120415658Y-117436930D01*
X120359725Y-117395058D01*
X120342810Y-117364081D01*
X120293797Y-117232671D01*
X120293793Y-117232664D01*
X120207547Y-117117455D01*
X120207544Y-117117452D01*
X120092335Y-117031206D01*
X120092328Y-117031202D01*
X119957482Y-116980908D01*
X119957483Y-116980908D01*
X119897883Y-116974501D01*
X119897881Y-116974500D01*
X119897873Y-116974500D01*
X119897864Y-116974500D01*
X118102129Y-116974500D01*
X118102123Y-116974501D01*
X118042516Y-116980908D01*
X117907671Y-117031202D01*
X117907664Y-117031206D01*
X117792455Y-117117452D01*
X117792452Y-117117455D01*
X117706206Y-117232664D01*
X117706202Y-117232671D01*
X117655908Y-117367517D01*
X117649501Y-117427116D01*
X117649500Y-117427135D01*
X117649500Y-119222870D01*
X100029589Y-119222870D01*
X100003334Y-119174788D01*
X100000500Y-119148430D01*
X100000500Y-117000003D01*
X115869909Y-117000003D01*
X115888212Y-117162455D01*
X115942210Y-117316774D01*
X115999802Y-117408430D01*
X116029192Y-117455204D01*
X116144796Y-117570808D01*
X116283225Y-117657789D01*
X116437539Y-117711786D01*
X116437542Y-117711786D01*
X116437544Y-117711787D01*
X116599996Y-117730091D01*
X116600000Y-117730091D01*
X116600004Y-117730091D01*
X116762455Y-117711787D01*
X116762456Y-117711786D01*
X116762461Y-117711786D01*
X116916775Y-117657789D01*
X117055204Y-117570808D01*
X117170808Y-117455204D01*
X117257789Y-117316775D01*
X117311786Y-117162461D01*
X117311787Y-117162455D01*
X117330091Y-117000003D01*
X117330091Y-116999996D01*
X117311787Y-116837544D01*
X117311786Y-116837542D01*
X117311786Y-116837539D01*
X117257789Y-116683225D01*
X117170808Y-116544796D01*
X117113693Y-116487681D01*
X117080208Y-116426358D01*
X117085192Y-116356666D01*
X117113693Y-116312319D01*
X117170808Y-116255204D01*
X117257789Y-116116775D01*
X117311786Y-115962461D01*
X117330091Y-115800000D01*
X117311786Y-115637539D01*
X117257789Y-115483225D01*
X117170808Y-115344796D01*
X117055204Y-115229192D01*
X116916774Y-115142210D01*
X116762455Y-115088212D01*
X116600004Y-115069909D01*
X116599996Y-115069909D01*
X116437544Y-115088212D01*
X116283225Y-115142210D01*
X116144795Y-115229192D01*
X116029192Y-115344795D01*
X115942210Y-115483225D01*
X115888212Y-115637544D01*
X115869909Y-115799996D01*
X115869909Y-115800003D01*
X115888212Y-115962455D01*
X115942210Y-116116774D01*
X116029192Y-116255204D01*
X116086307Y-116312319D01*
X116119792Y-116373642D01*
X116114808Y-116443334D01*
X116086307Y-116487681D01*
X116029192Y-116544795D01*
X115942210Y-116683225D01*
X115888212Y-116837544D01*
X115869909Y-116999996D01*
X115869909Y-117000003D01*
X100000500Y-117000003D01*
X100000500Y-111000003D01*
X129194435Y-111000003D01*
X129214630Y-111179249D01*
X129214631Y-111179254D01*
X129274211Y-111349523D01*
X129370184Y-111502262D01*
X129497738Y-111629816D01*
X129650478Y-111725789D01*
X129820745Y-111785368D01*
X129820750Y-111785369D01*
X129999996Y-111805565D01*
X130000000Y-111805565D01*
X130000004Y-111805565D01*
X130179249Y-111785369D01*
X130179252Y-111785368D01*
X130179255Y-111785368D01*
X130349522Y-111725789D01*
X130502262Y-111629816D01*
X130532077Y-111600001D01*
X163694390Y-111600001D01*
X163714804Y-111885433D01*
X163775628Y-112165037D01*
X163875635Y-112433166D01*
X164012770Y-112684309D01*
X164012775Y-112684317D01*
X164184254Y-112913387D01*
X164184270Y-112913405D01*
X164386594Y-113115729D01*
X164386612Y-113115745D01*
X164615682Y-113287224D01*
X164615690Y-113287229D01*
X164866833Y-113424364D01*
X164866832Y-113424364D01*
X164866836Y-113424365D01*
X164866839Y-113424367D01*
X165134954Y-113524369D01*
X165134960Y-113524370D01*
X165134962Y-113524371D01*
X165414566Y-113585195D01*
X165414568Y-113585195D01*
X165414572Y-113585196D01*
X165628552Y-113600500D01*
X166871448Y-113600500D01*
X167085428Y-113585196D01*
X167365046Y-113524369D01*
X167633161Y-113424367D01*
X167884315Y-113287226D01*
X168113395Y-113115739D01*
X168315739Y-112913395D01*
X168487226Y-112684315D01*
X168624367Y-112433161D01*
X168724369Y-112165046D01*
X168785196Y-111885428D01*
X168805610Y-111600000D01*
X168785196Y-111314572D01*
X168755759Y-111179254D01*
X168724371Y-111034962D01*
X168724370Y-111034960D01*
X168724369Y-111034954D01*
X168624367Y-110766839D01*
X168487226Y-110515685D01*
X168473791Y-110497738D01*
X168315745Y-110286612D01*
X168315729Y-110286594D01*
X168113405Y-110084270D01*
X168113387Y-110084254D01*
X167884317Y-109912775D01*
X167884309Y-109912770D01*
X167633166Y-109775635D01*
X167633167Y-109775635D01*
X167415520Y-109694457D01*
X167365046Y-109675631D01*
X167365043Y-109675630D01*
X167365037Y-109675628D01*
X167085433Y-109614804D01*
X166871450Y-109599500D01*
X166871448Y-109599500D01*
X165628552Y-109599500D01*
X165628549Y-109599500D01*
X165414566Y-109614804D01*
X165134962Y-109675628D01*
X164866833Y-109775635D01*
X164615690Y-109912770D01*
X164615682Y-109912775D01*
X164386612Y-110084254D01*
X164386594Y-110084270D01*
X164184270Y-110286594D01*
X164184254Y-110286612D01*
X164012775Y-110515682D01*
X164012770Y-110515690D01*
X163875635Y-110766833D01*
X163775628Y-111034962D01*
X163714804Y-111314566D01*
X163694390Y-111599998D01*
X163694390Y-111600001D01*
X130532077Y-111600001D01*
X130629816Y-111502262D01*
X130725789Y-111349522D01*
X130785368Y-111179255D01*
X130805565Y-111000000D01*
X130796551Y-110920000D01*
X130785369Y-110820750D01*
X130785368Y-110820745D01*
X130766503Y-110766833D01*
X130725789Y-110650478D01*
X130629816Y-110497738D01*
X130502262Y-110370184D01*
X130490283Y-110362657D01*
X130349523Y-110274211D01*
X130179254Y-110214631D01*
X130179249Y-110214630D01*
X130000004Y-110194435D01*
X129999996Y-110194435D01*
X129820750Y-110214630D01*
X129820745Y-110214631D01*
X129650476Y-110274211D01*
X129497737Y-110370184D01*
X129370184Y-110497737D01*
X129274211Y-110650476D01*
X129214631Y-110820745D01*
X129214630Y-110820750D01*
X129194435Y-110999996D01*
X129194435Y-111000003D01*
X100000500Y-111000003D01*
X100000500Y-110170000D01*
X100551634Y-110170000D01*
X100551931Y-110171946D01*
X100551933Y-110171952D01*
X100622562Y-110362657D01*
X100622565Y-110362664D01*
X100730149Y-110535267D01*
X100870264Y-110682668D01*
X100870266Y-110682669D01*
X101037195Y-110798856D01*
X101224092Y-110879059D01*
X101423310Y-110920000D01*
X101675000Y-110920000D01*
X101675000Y-110220000D01*
X102175000Y-110220000D01*
X102175000Y-110920000D01*
X102375713Y-110920000D01*
X102527338Y-110904581D01*
X102721381Y-110843700D01*
X102721391Y-110843695D01*
X102899215Y-110744994D01*
X102899216Y-110744994D01*
X103053530Y-110612521D01*
X103053531Y-110612520D01*
X103178018Y-110451695D01*
X103267588Y-110269093D01*
X103293246Y-110170000D01*
X104601634Y-110170000D01*
X104601931Y-110171946D01*
X104601933Y-110171952D01*
X104672562Y-110362657D01*
X104672565Y-110362664D01*
X104780149Y-110535267D01*
X104920264Y-110682668D01*
X104920266Y-110682669D01*
X105087195Y-110798856D01*
X105274092Y-110879059D01*
X105473310Y-110920000D01*
X105875000Y-110920000D01*
X105875000Y-110220000D01*
X106375000Y-110220000D01*
X106375000Y-110920000D01*
X106725713Y-110920000D01*
X106877338Y-110904581D01*
X107071381Y-110843700D01*
X107071391Y-110843695D01*
X107249215Y-110744994D01*
X107249216Y-110744994D01*
X107403530Y-110612521D01*
X107403531Y-110612520D01*
X107528018Y-110451695D01*
X107617588Y-110269093D01*
X107643246Y-110170000D01*
X106841111Y-110170000D01*
X106880610Y-110145543D01*
X106948201Y-110056038D01*
X106978895Y-109948160D01*
X106968546Y-109836479D01*
X106918552Y-109736078D01*
X106846069Y-109670000D01*
X107648366Y-109670000D01*
X107648068Y-109668053D01*
X107648066Y-109668047D01*
X107622865Y-109600003D01*
X147069909Y-109600003D01*
X147088212Y-109762455D01*
X147142210Y-109916774D01*
X147196717Y-110003521D01*
X147229192Y-110055204D01*
X147344796Y-110170808D01*
X147483225Y-110257789D01*
X147637539Y-110311786D01*
X147637542Y-110311786D01*
X147637544Y-110311787D01*
X147799996Y-110330091D01*
X147800000Y-110330091D01*
X147800004Y-110330091D01*
X147962455Y-110311787D01*
X147962456Y-110311786D01*
X147962461Y-110311786D01*
X148116775Y-110257789D01*
X148255204Y-110170808D01*
X148370808Y-110055204D01*
X148457789Y-109916775D01*
X148511786Y-109762461D01*
X148515864Y-109726269D01*
X148530091Y-109600003D01*
X150669909Y-109600003D01*
X150688212Y-109762455D01*
X150742210Y-109916774D01*
X150796717Y-110003521D01*
X150829192Y-110055204D01*
X150944796Y-110170808D01*
X151083225Y-110257789D01*
X151237539Y-110311786D01*
X151237542Y-110311786D01*
X151237544Y-110311787D01*
X151399996Y-110330091D01*
X151400000Y-110330091D01*
X151400004Y-110330091D01*
X151562455Y-110311787D01*
X151562456Y-110311786D01*
X151562461Y-110311786D01*
X151716775Y-110257789D01*
X151855204Y-110170808D01*
X151970808Y-110055204D01*
X152057789Y-109916775D01*
X152111786Y-109762461D01*
X152115864Y-109726269D01*
X152130091Y-109600003D01*
X152130091Y-109599996D01*
X152111787Y-109437544D01*
X152111786Y-109437542D01*
X152111786Y-109437539D01*
X152057789Y-109283225D01*
X151970808Y-109144796D01*
X151855204Y-109029192D01*
X151845956Y-109023381D01*
X151716774Y-108942210D01*
X151562455Y-108888212D01*
X151400004Y-108869909D01*
X151399996Y-108869909D01*
X151237544Y-108888212D01*
X151083225Y-108942210D01*
X150944795Y-109029192D01*
X150829192Y-109144795D01*
X150742210Y-109283225D01*
X150688212Y-109437544D01*
X150669909Y-109599996D01*
X150669909Y-109600003D01*
X148530091Y-109600003D01*
X148530091Y-109599996D01*
X148511787Y-109437544D01*
X148511786Y-109437542D01*
X148511786Y-109437539D01*
X148457789Y-109283225D01*
X148370808Y-109144796D01*
X148255204Y-109029192D01*
X148245956Y-109023381D01*
X148116774Y-108942210D01*
X147962455Y-108888212D01*
X147800004Y-108869909D01*
X147799996Y-108869909D01*
X147637544Y-108888212D01*
X147483225Y-108942210D01*
X147344795Y-109029192D01*
X147229192Y-109144795D01*
X147142210Y-109283225D01*
X147088212Y-109437544D01*
X147069909Y-109599996D01*
X147069909Y-109600003D01*
X107622865Y-109600003D01*
X107577437Y-109477342D01*
X107577434Y-109477335D01*
X107469850Y-109304732D01*
X107329735Y-109157331D01*
X107329733Y-109157330D01*
X107162804Y-109041143D01*
X106975907Y-108960940D01*
X106776690Y-108920000D01*
X106347323Y-108920000D01*
X106280284Y-108900315D01*
X106234529Y-108847511D01*
X106224585Y-108778353D01*
X106237524Y-108738378D01*
X106241242Y-108731295D01*
X106280500Y-108572021D01*
X106280500Y-108407979D01*
X106266092Y-108349523D01*
X106241243Y-108248708D01*
X106241242Y-108248707D01*
X106241242Y-108248705D01*
X106165008Y-108103454D01*
X106165006Y-108103452D01*
X106165006Y-108103451D01*
X106073359Y-108000003D01*
X112394435Y-108000003D01*
X112414630Y-108179249D01*
X112414631Y-108179254D01*
X112474211Y-108349523D01*
X112568761Y-108499997D01*
X112570184Y-108502262D01*
X112697738Y-108629816D01*
X112788080Y-108686582D01*
X112825101Y-108709844D01*
X112850478Y-108725789D01*
X112886450Y-108738376D01*
X113020745Y-108785368D01*
X113020750Y-108785369D01*
X113199996Y-108805565D01*
X113200000Y-108805565D01*
X113200004Y-108805565D01*
X113379249Y-108785369D01*
X113379252Y-108785368D01*
X113379255Y-108785368D01*
X113549522Y-108725789D01*
X113702262Y-108629816D01*
X113829816Y-108502262D01*
X113831237Y-108500001D01*
X157444532Y-108500001D01*
X157464364Y-108726686D01*
X157464366Y-108726697D01*
X157523258Y-108946488D01*
X157523261Y-108946497D01*
X157619431Y-109152732D01*
X157619432Y-109152734D01*
X157749954Y-109339141D01*
X157910858Y-109500045D01*
X157910861Y-109500047D01*
X158097266Y-109630568D01*
X158303504Y-109726739D01*
X158523308Y-109785635D01*
X158685230Y-109799801D01*
X158749998Y-109805468D01*
X158750000Y-109805468D01*
X158750002Y-109805468D01*
X158806673Y-109800509D01*
X158976692Y-109785635D01*
X159196496Y-109726739D01*
X159402734Y-109630568D01*
X159589139Y-109500047D01*
X159750047Y-109339139D01*
X159880568Y-109152734D01*
X159976739Y-108946496D01*
X160035635Y-108726692D01*
X160055468Y-108500002D01*
X171945034Y-108500002D01*
X171964858Y-108726599D01*
X171964860Y-108726610D01*
X172023730Y-108946317D01*
X172023735Y-108946331D01*
X172119863Y-109152478D01*
X172170974Y-109225472D01*
X172766923Y-108629523D01*
X172790507Y-108709844D01*
X172868239Y-108830798D01*
X172976900Y-108924952D01*
X173107685Y-108984680D01*
X173117466Y-108986086D01*
X172524526Y-109579025D01*
X172597513Y-109630132D01*
X172597521Y-109630136D01*
X172803668Y-109726264D01*
X172803682Y-109726269D01*
X173023389Y-109785139D01*
X173023400Y-109785141D01*
X173249998Y-109804966D01*
X173250002Y-109804966D01*
X173476599Y-109785141D01*
X173476610Y-109785139D01*
X173696317Y-109726269D01*
X173696331Y-109726264D01*
X173902478Y-109630136D01*
X173975471Y-109579024D01*
X173382533Y-108986086D01*
X173392315Y-108984680D01*
X173523100Y-108924952D01*
X173631761Y-108830798D01*
X173709493Y-108709844D01*
X173733076Y-108629523D01*
X174329024Y-109225471D01*
X174380136Y-109152478D01*
X174476264Y-108946331D01*
X174476269Y-108946317D01*
X174535139Y-108726610D01*
X174535141Y-108726599D01*
X174554966Y-108500002D01*
X174554966Y-108499997D01*
X174535141Y-108273400D01*
X174535139Y-108273389D01*
X174476269Y-108053682D01*
X174476264Y-108053668D01*
X174380136Y-107847521D01*
X174380132Y-107847513D01*
X174329025Y-107774526D01*
X173733076Y-108370475D01*
X173709493Y-108290156D01*
X173631761Y-108169202D01*
X173523100Y-108075048D01*
X173392315Y-108015320D01*
X173382533Y-108013913D01*
X173975472Y-107420974D01*
X173902478Y-107369863D01*
X173696331Y-107273735D01*
X173696317Y-107273730D01*
X173476610Y-107214860D01*
X173476599Y-107214858D01*
X173250002Y-107195034D01*
X173249998Y-107195034D01*
X173023400Y-107214858D01*
X173023389Y-107214860D01*
X172803682Y-107273730D01*
X172803673Y-107273734D01*
X172597516Y-107369866D01*
X172597512Y-107369868D01*
X172524526Y-107420973D01*
X172524526Y-107420974D01*
X173117466Y-108013913D01*
X173107685Y-108015320D01*
X172976900Y-108075048D01*
X172868239Y-108169202D01*
X172790507Y-108290156D01*
X172766923Y-108370475D01*
X172170974Y-107774526D01*
X172170973Y-107774526D01*
X172119868Y-107847512D01*
X172119866Y-107847516D01*
X172023734Y-108053673D01*
X172023730Y-108053682D01*
X171964860Y-108273389D01*
X171964858Y-108273400D01*
X171945034Y-108499997D01*
X171945034Y-108500002D01*
X160055468Y-108500002D01*
X160055468Y-108500000D01*
X160035635Y-108273308D01*
X159976739Y-108053504D01*
X159880568Y-107847266D01*
X159750047Y-107660861D01*
X159750045Y-107660858D01*
X159589141Y-107499954D01*
X159402734Y-107369432D01*
X159402730Y-107369430D01*
X159387022Y-107362105D01*
X159334583Y-107315931D01*
X159315433Y-107248737D01*
X159335650Y-107181857D01*
X159387028Y-107137340D01*
X159402481Y-107130134D01*
X159475471Y-107079024D01*
X158882533Y-106486086D01*
X158892315Y-106484680D01*
X159023100Y-106424952D01*
X159131761Y-106330798D01*
X159209493Y-106209844D01*
X159233076Y-106129523D01*
X159829024Y-106725471D01*
X159880136Y-106652478D01*
X159976264Y-106446331D01*
X159976269Y-106446317D01*
X160035139Y-106226610D01*
X160035141Y-106226599D01*
X160054966Y-106000002D01*
X160054966Y-105999997D01*
X160035141Y-105773400D01*
X160035139Y-105773389D01*
X159976269Y-105553682D01*
X159976264Y-105553668D01*
X159880136Y-105347521D01*
X159880132Y-105347513D01*
X159829025Y-105274526D01*
X159233076Y-105870475D01*
X159209493Y-105790156D01*
X159131761Y-105669202D01*
X159023100Y-105575048D01*
X158892315Y-105515320D01*
X158882533Y-105513913D01*
X159475471Y-104920975D01*
X159472242Y-104884060D01*
X159486008Y-104815560D01*
X159534623Y-104765377D01*
X159556760Y-104755548D01*
X159619334Y-104734814D01*
X159768656Y-104642712D01*
X159892712Y-104518656D01*
X159984814Y-104369334D01*
X160039999Y-104202797D01*
X160050500Y-104100009D01*
X160050500Y-103500001D01*
X171944532Y-103500001D01*
X171964364Y-103726686D01*
X171964366Y-103726697D01*
X172023258Y-103946488D01*
X172023261Y-103946497D01*
X172119431Y-104152732D01*
X172119432Y-104152734D01*
X172249954Y-104339141D01*
X172410858Y-104500045D01*
X172457693Y-104532839D01*
X172597266Y-104630568D01*
X172803504Y-104726739D01*
X173023308Y-104785635D01*
X173185230Y-104799801D01*
X173249998Y-104805468D01*
X173250000Y-104805468D01*
X173250002Y-104805468D01*
X173306796Y-104800499D01*
X173476692Y-104785635D01*
X173696496Y-104726739D01*
X173902734Y-104630568D01*
X174089139Y-104500047D01*
X174250047Y-104339139D01*
X174380568Y-104152734D01*
X174476739Y-103946496D01*
X174535635Y-103726692D01*
X174555468Y-103500000D01*
X174535635Y-103273308D01*
X174476739Y-103053504D01*
X174380568Y-102847266D01*
X174250047Y-102660861D01*
X174250045Y-102660858D01*
X174089141Y-102499954D01*
X173902734Y-102369432D01*
X173902732Y-102369431D01*
X173696497Y-102273261D01*
X173696488Y-102273258D01*
X173476697Y-102214366D01*
X173476693Y-102214365D01*
X173476692Y-102214365D01*
X173476691Y-102214364D01*
X173476686Y-102214364D01*
X173250002Y-102194532D01*
X173249998Y-102194532D01*
X173023313Y-102214364D01*
X173023302Y-102214366D01*
X172803511Y-102273258D01*
X172803502Y-102273261D01*
X172597267Y-102369431D01*
X172597265Y-102369432D01*
X172410858Y-102499954D01*
X172249954Y-102660858D01*
X172119432Y-102847265D01*
X172119431Y-102847267D01*
X172023261Y-103053502D01*
X172023258Y-103053511D01*
X171964366Y-103273302D01*
X171964364Y-103273313D01*
X171944532Y-103499998D01*
X171944532Y-103500001D01*
X160050500Y-103500001D01*
X160050499Y-102899992D01*
X160039999Y-102797203D01*
X159984814Y-102630666D01*
X159892712Y-102481344D01*
X159768656Y-102357288D01*
X159654893Y-102287119D01*
X159619336Y-102265187D01*
X159619331Y-102265185D01*
X159617508Y-102264581D01*
X159452797Y-102210001D01*
X159452795Y-102210000D01*
X159350010Y-102199500D01*
X158149998Y-102199500D01*
X158149981Y-102199501D01*
X158047203Y-102210000D01*
X158047200Y-102210001D01*
X157880668Y-102265185D01*
X157880663Y-102265187D01*
X157731342Y-102357289D01*
X157607289Y-102481342D01*
X157515187Y-102630663D01*
X157515186Y-102630666D01*
X157460001Y-102797203D01*
X157460001Y-102797204D01*
X157460000Y-102797204D01*
X157449500Y-102899983D01*
X157449500Y-104100001D01*
X157449501Y-104100018D01*
X157460000Y-104202796D01*
X157460001Y-104202799D01*
X157505180Y-104339139D01*
X157515186Y-104369334D01*
X157607288Y-104518656D01*
X157731344Y-104642712D01*
X157880666Y-104734814D01*
X157943233Y-104755546D01*
X158000676Y-104795316D01*
X158027500Y-104859832D01*
X158027756Y-104884058D01*
X158024526Y-104920974D01*
X158617466Y-105513913D01*
X158607685Y-105515320D01*
X158476900Y-105575048D01*
X158368239Y-105669202D01*
X158290507Y-105790156D01*
X158266923Y-105870475D01*
X157670974Y-105274526D01*
X157670973Y-105274526D01*
X157619868Y-105347512D01*
X157619866Y-105347516D01*
X157523734Y-105553673D01*
X157523730Y-105553682D01*
X157464860Y-105773389D01*
X157464858Y-105773400D01*
X157445034Y-105999997D01*
X157445034Y-106000002D01*
X157464858Y-106226599D01*
X157464860Y-106226610D01*
X157523730Y-106446317D01*
X157523735Y-106446331D01*
X157619863Y-106652478D01*
X157670974Y-106725472D01*
X158266923Y-106129523D01*
X158290507Y-106209844D01*
X158368239Y-106330798D01*
X158476900Y-106424952D01*
X158607685Y-106484680D01*
X158617466Y-106486086D01*
X158024526Y-107079025D01*
X158097513Y-107130132D01*
X158097515Y-107130133D01*
X158112973Y-107137341D01*
X158165413Y-107183513D01*
X158184566Y-107250706D01*
X158164351Y-107317587D01*
X158112979Y-107362104D01*
X158097270Y-107369429D01*
X158097265Y-107369432D01*
X157910858Y-107499954D01*
X157749954Y-107660858D01*
X157619432Y-107847265D01*
X157619431Y-107847267D01*
X157523261Y-108053502D01*
X157523258Y-108053511D01*
X157464366Y-108273302D01*
X157464364Y-108273313D01*
X157444532Y-108499998D01*
X157444532Y-108500001D01*
X113831237Y-108500001D01*
X113925789Y-108349522D01*
X113985368Y-108179255D01*
X113993909Y-108103451D01*
X114005565Y-108000003D01*
X114005565Y-107999996D01*
X113985369Y-107820750D01*
X113985368Y-107820745D01*
X113969195Y-107774526D01*
X113925789Y-107650478D01*
X113829816Y-107497738D01*
X113702262Y-107370184D01*
X113689403Y-107362104D01*
X113549523Y-107274211D01*
X113379254Y-107214631D01*
X113379249Y-107214630D01*
X113249424Y-107200003D01*
X134994435Y-107200003D01*
X135014630Y-107379249D01*
X135014631Y-107379254D01*
X135074211Y-107549523D01*
X135137646Y-107650478D01*
X135170184Y-107702262D01*
X135297738Y-107829816D01*
X135388080Y-107886582D01*
X135436130Y-107916774D01*
X135450478Y-107925789D01*
X135607313Y-107980668D01*
X135620745Y-107985368D01*
X135620750Y-107985369D01*
X135799996Y-108005565D01*
X135800000Y-108005565D01*
X135800004Y-108005565D01*
X135979249Y-107985369D01*
X135979252Y-107985368D01*
X135979255Y-107985368D01*
X136149522Y-107925789D01*
X136302262Y-107829816D01*
X136429816Y-107702262D01*
X136494070Y-107600003D01*
X148469909Y-107600003D01*
X148488212Y-107762455D01*
X148542210Y-107916774D01*
X148594502Y-107999996D01*
X148629192Y-108055204D01*
X148744796Y-108170808D01*
X148883225Y-108257789D01*
X149037539Y-108311786D01*
X149037542Y-108311786D01*
X149037544Y-108311787D01*
X149199996Y-108330091D01*
X149200000Y-108330091D01*
X149200004Y-108330091D01*
X149362455Y-108311787D01*
X149362456Y-108311786D01*
X149362461Y-108311786D01*
X149516775Y-108257789D01*
X149655204Y-108170808D01*
X149770808Y-108055204D01*
X149857789Y-107916775D01*
X149911786Y-107762461D01*
X149923234Y-107660858D01*
X149930091Y-107600003D01*
X149930091Y-107599996D01*
X149911787Y-107437544D01*
X149911786Y-107437542D01*
X149911786Y-107437539D01*
X149857789Y-107283225D01*
X149770808Y-107144796D01*
X149655204Y-107029192D01*
X149617602Y-107005565D01*
X149516774Y-106942210D01*
X149362455Y-106888212D01*
X149200004Y-106869909D01*
X149199996Y-106869909D01*
X149037544Y-106888212D01*
X148883225Y-106942210D01*
X148744795Y-107029192D01*
X148629192Y-107144795D01*
X148542210Y-107283225D01*
X148488212Y-107437544D01*
X148469909Y-107599996D01*
X148469909Y-107600003D01*
X136494070Y-107600003D01*
X136525789Y-107549522D01*
X136585368Y-107379255D01*
X136586426Y-107369866D01*
X136605565Y-107200003D01*
X136605565Y-107199996D01*
X136585369Y-107020750D01*
X136585368Y-107020745D01*
X136538993Y-106888214D01*
X136525789Y-106850478D01*
X136429816Y-106697738D01*
X136302262Y-106570184D01*
X136269379Y-106549522D01*
X136149523Y-106474211D01*
X135979254Y-106414631D01*
X135979249Y-106414630D01*
X135800004Y-106394435D01*
X135799996Y-106394435D01*
X135620750Y-106414630D01*
X135620745Y-106414631D01*
X135450476Y-106474211D01*
X135297737Y-106570184D01*
X135170184Y-106697737D01*
X135074211Y-106850476D01*
X135014631Y-107020745D01*
X135014630Y-107020750D01*
X134994435Y-107199996D01*
X134994435Y-107200003D01*
X113249424Y-107200003D01*
X113200004Y-107194435D01*
X113199996Y-107194435D01*
X113020750Y-107214630D01*
X113020745Y-107214631D01*
X112850476Y-107274211D01*
X112697737Y-107370184D01*
X112570184Y-107497737D01*
X112474211Y-107650476D01*
X112414631Y-107820745D01*
X112414630Y-107820750D01*
X112394435Y-107999996D01*
X112394435Y-108000003D01*
X106073359Y-108000003D01*
X106056233Y-107980672D01*
X106056231Y-107980670D01*
X106056229Y-107980668D01*
X105921227Y-107887483D01*
X105921229Y-107887483D01*
X105767845Y-107829312D01*
X105767843Y-107829311D01*
X105645860Y-107814500D01*
X105645857Y-107814500D01*
X105564143Y-107814500D01*
X105564140Y-107814500D01*
X105442156Y-107829311D01*
X105442154Y-107829312D01*
X105288771Y-107887483D01*
X105153773Y-107980666D01*
X105153766Y-107980672D01*
X105044993Y-108103451D01*
X104968756Y-108248708D01*
X104929500Y-108407978D01*
X104929500Y-108572021D01*
X104968756Y-108731291D01*
X104968757Y-108731294D01*
X104968758Y-108731295D01*
X105044992Y-108876546D01*
X105057695Y-108890885D01*
X105087417Y-108954117D01*
X105078234Y-109023381D01*
X105033062Y-109076684D01*
X105025061Y-109081529D01*
X105000788Y-109095002D01*
X105000783Y-109095005D01*
X104846469Y-109227478D01*
X104846468Y-109227479D01*
X104721981Y-109388304D01*
X104632411Y-109570906D01*
X104606754Y-109670000D01*
X105408889Y-109670000D01*
X105369390Y-109694457D01*
X105301799Y-109783962D01*
X105271105Y-109891840D01*
X105281454Y-110003521D01*
X105331448Y-110103922D01*
X105403931Y-110170000D01*
X104601634Y-110170000D01*
X103293246Y-110170000D01*
X102491111Y-110170000D01*
X102530610Y-110145543D01*
X102598201Y-110056038D01*
X102628895Y-109948160D01*
X102618546Y-109836479D01*
X102568552Y-109736078D01*
X102496069Y-109670000D01*
X103298366Y-109670000D01*
X103298068Y-109668053D01*
X103298066Y-109668047D01*
X103227437Y-109477342D01*
X103227434Y-109477335D01*
X103119850Y-109304732D01*
X102979735Y-109157331D01*
X102979733Y-109157330D01*
X102812804Y-109041143D01*
X102625907Y-108960940D01*
X102426690Y-108920000D01*
X102175000Y-108920000D01*
X102175000Y-109620000D01*
X101675000Y-109620000D01*
X101675000Y-108920000D01*
X101474287Y-108920000D01*
X101322661Y-108935418D01*
X101128618Y-108996299D01*
X101128608Y-108996304D01*
X100950784Y-109095005D01*
X100950783Y-109095005D01*
X100796469Y-109227478D01*
X100796468Y-109227479D01*
X100671981Y-109388304D01*
X100582411Y-109570906D01*
X100556754Y-109670000D01*
X101358889Y-109670000D01*
X101319390Y-109694457D01*
X101251799Y-109783962D01*
X101221105Y-109891840D01*
X101231454Y-110003521D01*
X101281448Y-110103922D01*
X101353931Y-110170000D01*
X100551634Y-110170000D01*
X100000500Y-110170000D01*
X100000500Y-106200003D01*
X123194435Y-106200003D01*
X123214630Y-106379249D01*
X123214631Y-106379254D01*
X123274211Y-106549523D01*
X123367341Y-106697737D01*
X123370184Y-106702262D01*
X123497738Y-106829816D01*
X123650478Y-106925789D01*
X123820745Y-106985368D01*
X123820750Y-106985369D01*
X123999996Y-107005565D01*
X124000000Y-107005565D01*
X124000004Y-107005565D01*
X124179249Y-106985369D01*
X124179252Y-106985368D01*
X124179255Y-106985368D01*
X124349522Y-106925789D01*
X124502262Y-106829816D01*
X124629816Y-106702262D01*
X124725789Y-106549522D01*
X124785368Y-106379255D01*
X124793929Y-106303263D01*
X124820994Y-106238853D01*
X124878588Y-106199297D01*
X124903254Y-106193930D01*
X124979255Y-106185368D01*
X125149522Y-106125789D01*
X125302262Y-106029816D01*
X125429816Y-105902262D01*
X125525789Y-105749522D01*
X125585368Y-105579255D01*
X125587251Y-105562544D01*
X125591481Y-105525003D01*
X139069909Y-105525003D01*
X139088212Y-105687455D01*
X139142210Y-105841774D01*
X139196460Y-105928111D01*
X139229192Y-105980204D01*
X139344796Y-106095808D01*
X139483225Y-106182789D01*
X139637539Y-106236786D01*
X139637542Y-106236786D01*
X139637544Y-106236787D01*
X139799996Y-106255091D01*
X139800000Y-106255091D01*
X139800004Y-106255091D01*
X139962455Y-106236787D01*
X139962456Y-106236786D01*
X139962461Y-106236786D01*
X140116775Y-106182789D01*
X140255204Y-106095808D01*
X140370808Y-105980204D01*
X140457789Y-105841775D01*
X140498649Y-105725003D01*
X142669909Y-105725003D01*
X142688212Y-105887455D01*
X142742210Y-106041774D01*
X142776162Y-106095808D01*
X142829192Y-106180204D01*
X142944796Y-106295808D01*
X143083225Y-106382789D01*
X143237539Y-106436786D01*
X143237542Y-106436786D01*
X143237544Y-106436787D01*
X143399996Y-106455091D01*
X143400000Y-106455091D01*
X143400004Y-106455091D01*
X143562455Y-106436787D01*
X143562456Y-106436786D01*
X143562461Y-106436786D01*
X143716775Y-106382789D01*
X143855204Y-106295808D01*
X143970808Y-106180204D01*
X144057789Y-106041775D01*
X144111786Y-105887461D01*
X144115953Y-105850478D01*
X144130091Y-105725003D01*
X147069909Y-105725003D01*
X147088212Y-105887455D01*
X147142210Y-106041774D01*
X147176162Y-106095808D01*
X147229192Y-106180204D01*
X147344796Y-106295808D01*
X147483225Y-106382789D01*
X147637539Y-106436786D01*
X147637542Y-106436786D01*
X147637544Y-106436787D01*
X147799996Y-106455091D01*
X147800000Y-106455091D01*
X147800004Y-106455091D01*
X147962455Y-106436787D01*
X147962456Y-106436786D01*
X147962461Y-106436786D01*
X148116775Y-106382789D01*
X148255204Y-106295808D01*
X148370808Y-106180204D01*
X148457789Y-106041775D01*
X148511786Y-105887461D01*
X148515953Y-105850478D01*
X148530091Y-105725003D01*
X148530091Y-105724996D01*
X148511787Y-105562544D01*
X148511786Y-105562542D01*
X148511786Y-105562539D01*
X148457789Y-105408225D01*
X148370808Y-105269796D01*
X148255204Y-105154192D01*
X148116774Y-105067210D01*
X147962455Y-105013212D01*
X147800004Y-104994909D01*
X147799996Y-104994909D01*
X147637544Y-105013212D01*
X147483225Y-105067210D01*
X147344795Y-105154192D01*
X147229192Y-105269795D01*
X147142210Y-105408225D01*
X147088212Y-105562544D01*
X147069909Y-105724996D01*
X147069909Y-105725003D01*
X144130091Y-105725003D01*
X144130091Y-105724996D01*
X144111787Y-105562544D01*
X144111786Y-105562542D01*
X144111786Y-105562539D01*
X144057789Y-105408225D01*
X143970808Y-105269796D01*
X143855204Y-105154192D01*
X143716774Y-105067210D01*
X143562455Y-105013212D01*
X143400004Y-104994909D01*
X143399996Y-104994909D01*
X143237544Y-105013212D01*
X143083225Y-105067210D01*
X142944795Y-105154192D01*
X142829192Y-105269795D01*
X142742210Y-105408225D01*
X142688212Y-105562544D01*
X142669909Y-105724996D01*
X142669909Y-105725003D01*
X140498649Y-105725003D01*
X140511786Y-105687461D01*
X140511787Y-105687455D01*
X140530091Y-105525003D01*
X140530091Y-105524996D01*
X140511787Y-105362544D01*
X140511786Y-105362542D01*
X140511786Y-105362539D01*
X140457789Y-105208225D01*
X140370808Y-105069796D01*
X140255204Y-104954192D01*
X140202338Y-104920974D01*
X140116774Y-104867210D01*
X139962455Y-104813212D01*
X139800004Y-104794909D01*
X139799996Y-104794909D01*
X139637544Y-104813212D01*
X139483225Y-104867210D01*
X139344795Y-104954192D01*
X139229192Y-105069795D01*
X139142210Y-105208225D01*
X139088212Y-105362544D01*
X139069909Y-105524996D01*
X139069909Y-105525003D01*
X125591481Y-105525003D01*
X125605565Y-105400003D01*
X125605565Y-105399996D01*
X125585369Y-105220750D01*
X125585368Y-105220745D01*
X125543909Y-105102262D01*
X125525789Y-105050478D01*
X125502374Y-105013214D01*
X125429815Y-104897737D01*
X125302262Y-104770184D01*
X125149521Y-104674210D01*
X124979249Y-104614630D01*
X124903265Y-104606069D01*
X124838851Y-104579002D01*
X124799296Y-104521407D01*
X124793930Y-104496743D01*
X124785368Y-104420745D01*
X124725789Y-104250478D01*
X124717186Y-104236787D01*
X124664371Y-104152732D01*
X124629816Y-104097738D01*
X124502262Y-103970184D01*
X124349523Y-103874211D01*
X124179254Y-103814631D01*
X124179249Y-103814630D01*
X124000004Y-103794435D01*
X123999996Y-103794435D01*
X123820750Y-103814630D01*
X123820745Y-103814631D01*
X123650476Y-103874211D01*
X123497737Y-103970184D01*
X123370184Y-104097737D01*
X123274211Y-104250476D01*
X123214631Y-104420745D01*
X123214630Y-104420750D01*
X123194435Y-104599996D01*
X123194435Y-104600003D01*
X123214630Y-104779249D01*
X123214631Y-104779254D01*
X123274211Y-104949523D01*
X123349784Y-105069796D01*
X123370184Y-105102262D01*
X123497738Y-105229816D01*
X123576696Y-105279428D01*
X123601487Y-105295006D01*
X123647778Y-105347341D01*
X123658426Y-105416395D01*
X123630051Y-105480243D01*
X123601487Y-105504994D01*
X123497737Y-105570184D01*
X123370184Y-105697737D01*
X123274211Y-105850476D01*
X123214631Y-106020745D01*
X123214630Y-106020750D01*
X123194435Y-106199996D01*
X123194435Y-106200003D01*
X100000500Y-106200003D01*
X100000500Y-101530000D01*
X100551634Y-101530000D01*
X100551931Y-101531946D01*
X100551933Y-101531952D01*
X100622562Y-101722657D01*
X100622565Y-101722664D01*
X100730149Y-101895267D01*
X100870264Y-102042668D01*
X100870266Y-102042669D01*
X101037195Y-102158856D01*
X101224092Y-102239059D01*
X101423310Y-102280000D01*
X101675000Y-102280000D01*
X101675000Y-101580000D01*
X102175000Y-101580000D01*
X102175000Y-102280000D01*
X102375713Y-102280000D01*
X102527338Y-102264581D01*
X102721381Y-102203700D01*
X102721391Y-102203695D01*
X102899215Y-102104994D01*
X102899216Y-102104994D01*
X103053530Y-101972521D01*
X103053531Y-101972520D01*
X103178018Y-101811695D01*
X103267588Y-101629093D01*
X103293246Y-101530000D01*
X104601634Y-101530000D01*
X104601931Y-101531946D01*
X104601933Y-101531952D01*
X104672562Y-101722657D01*
X104672565Y-101722664D01*
X104780149Y-101895267D01*
X104920264Y-102042668D01*
X104920266Y-102042669D01*
X105036860Y-102123821D01*
X105080639Y-102178275D01*
X105088027Y-102247753D01*
X105058841Y-102307820D01*
X105044993Y-102323451D01*
X104968756Y-102468708D01*
X104929500Y-102627978D01*
X104929500Y-102792021D01*
X104968756Y-102951291D01*
X104968757Y-102951294D01*
X104968758Y-102951295D01*
X104986641Y-102985368D01*
X105044993Y-103096548D01*
X105153766Y-103219327D01*
X105153768Y-103219329D01*
X105153771Y-103219332D01*
X105288771Y-103312516D01*
X105288772Y-103312516D01*
X105288774Y-103312518D01*
X105442155Y-103370688D01*
X105472652Y-103374391D01*
X105564140Y-103385500D01*
X105564143Y-103385500D01*
X105645860Y-103385500D01*
X105719049Y-103376612D01*
X105767845Y-103370688D01*
X105921226Y-103312518D01*
X106056229Y-103219332D01*
X106073353Y-103200003D01*
X109194435Y-103200003D01*
X109214630Y-103379249D01*
X109214631Y-103379254D01*
X109274211Y-103549523D01*
X109360880Y-103687455D01*
X109370184Y-103702262D01*
X109497738Y-103829816D01*
X109650478Y-103925789D01*
X109777352Y-103970184D01*
X109820745Y-103985368D01*
X109820750Y-103985369D01*
X109999996Y-104005565D01*
X110000000Y-104005565D01*
X110000004Y-104005565D01*
X110179249Y-103985369D01*
X110179252Y-103985368D01*
X110179255Y-103985368D01*
X110349522Y-103925789D01*
X110502262Y-103829816D01*
X110629816Y-103702262D01*
X110725789Y-103549522D01*
X110734369Y-103525003D01*
X147069909Y-103525003D01*
X147088212Y-103687455D01*
X147142210Y-103841774D01*
X147142211Y-103841775D01*
X147229192Y-103980204D01*
X147344796Y-104095808D01*
X147483225Y-104182789D01*
X147637539Y-104236786D01*
X147637542Y-104236786D01*
X147637544Y-104236787D01*
X147799996Y-104255091D01*
X147800000Y-104255091D01*
X147800004Y-104255091D01*
X147962455Y-104236787D01*
X147962456Y-104236786D01*
X147962461Y-104236786D01*
X148116775Y-104182789D01*
X148134027Y-104171948D01*
X148201263Y-104152948D01*
X148265972Y-104171948D01*
X148283225Y-104182789D01*
X148437539Y-104236786D01*
X148437542Y-104236786D01*
X148437544Y-104236787D01*
X148599996Y-104255091D01*
X148600000Y-104255091D01*
X148600004Y-104255091D01*
X148762455Y-104236787D01*
X148762456Y-104236786D01*
X148762461Y-104236786D01*
X148916775Y-104182789D01*
X149055204Y-104095808D01*
X149170808Y-103980204D01*
X149257789Y-103841775D01*
X149311786Y-103687461D01*
X149330091Y-103525000D01*
X149327274Y-103500001D01*
X149311787Y-103362544D01*
X149311786Y-103362542D01*
X149311786Y-103362539D01*
X149305554Y-103344731D01*
X149301992Y-103274956D01*
X149334916Y-103216096D01*
X149370807Y-103180205D01*
X149370808Y-103180204D01*
X149457789Y-103041775D01*
X149511786Y-102887461D01*
X149515953Y-102850478D01*
X149530091Y-102725003D01*
X149530091Y-102724996D01*
X149511787Y-102562544D01*
X149511786Y-102562542D01*
X149511786Y-102562539D01*
X149457789Y-102408225D01*
X149370808Y-102269796D01*
X149255204Y-102154192D01*
X149176906Y-102104994D01*
X149116774Y-102067210D01*
X148962455Y-102013212D01*
X148800004Y-101994909D01*
X148799996Y-101994909D01*
X148637544Y-102013212D01*
X148483225Y-102067210D01*
X148344795Y-102154192D01*
X148229192Y-102269795D01*
X148142210Y-102408225D01*
X148088212Y-102562544D01*
X148072630Y-102700842D01*
X148045563Y-102765256D01*
X147987968Y-102804811D01*
X147935527Y-102810178D01*
X147800004Y-102794909D01*
X147799996Y-102794909D01*
X147637544Y-102813212D01*
X147483225Y-102867210D01*
X147344795Y-102954192D01*
X147229192Y-103069795D01*
X147142210Y-103208225D01*
X147088212Y-103362544D01*
X147069909Y-103524996D01*
X147069909Y-103525003D01*
X110734369Y-103525003D01*
X110785368Y-103379255D01*
X110785369Y-103379249D01*
X110805565Y-103200003D01*
X110805565Y-103199996D01*
X110785369Y-103020750D01*
X110785368Y-103020745D01*
X110743117Y-102899998D01*
X110725789Y-102850478D01*
X110723771Y-102847267D01*
X110672240Y-102765256D01*
X110629816Y-102697738D01*
X110502262Y-102570184D01*
X110390492Y-102499954D01*
X110349523Y-102474211D01*
X110179254Y-102414631D01*
X110179249Y-102414630D01*
X110000004Y-102394435D01*
X109999996Y-102394435D01*
X109820750Y-102414630D01*
X109820745Y-102414631D01*
X109650476Y-102474211D01*
X109497737Y-102570184D01*
X109370184Y-102697737D01*
X109274211Y-102850476D01*
X109214631Y-103020745D01*
X109214630Y-103020750D01*
X109194435Y-103199996D01*
X109194435Y-103200003D01*
X106073353Y-103200003D01*
X106165008Y-103096546D01*
X106241242Y-102951295D01*
X106280500Y-102792021D01*
X106280500Y-102627979D01*
X106241242Y-102468705D01*
X106237524Y-102461622D01*
X106223802Y-102393115D01*
X106249295Y-102328062D01*
X106305912Y-102287119D01*
X106347323Y-102280000D01*
X106725713Y-102280000D01*
X106877338Y-102264581D01*
X107071381Y-102203700D01*
X107071391Y-102203695D01*
X107078043Y-102200003D01*
X125194435Y-102200003D01*
X125214630Y-102379249D01*
X125214631Y-102379254D01*
X125274211Y-102549523D01*
X125323508Y-102627978D01*
X125370184Y-102702262D01*
X125497738Y-102829816D01*
X125650478Y-102925789D01*
X125820745Y-102985368D01*
X125820750Y-102985369D01*
X125999996Y-103005565D01*
X126000000Y-103005565D01*
X126000004Y-103005565D01*
X126179249Y-102985369D01*
X126179252Y-102985368D01*
X126179255Y-102985368D01*
X126349522Y-102925789D01*
X126502262Y-102829816D01*
X126629816Y-102702262D01*
X126725789Y-102549522D01*
X126785368Y-102379255D01*
X126791552Y-102324369D01*
X126805565Y-102200003D01*
X126805565Y-102199996D01*
X126785369Y-102020750D01*
X126785368Y-102020745D01*
X126748621Y-101915729D01*
X126725789Y-101850478D01*
X126629816Y-101697738D01*
X126502262Y-101570184D01*
X126493356Y-101564588D01*
X126349523Y-101474211D01*
X126179254Y-101414631D01*
X126179249Y-101414630D01*
X126000004Y-101394435D01*
X125999996Y-101394435D01*
X125820750Y-101414630D01*
X125820745Y-101414631D01*
X125650476Y-101474211D01*
X125497737Y-101570184D01*
X125370184Y-101697737D01*
X125274211Y-101850476D01*
X125214631Y-102020745D01*
X125214630Y-102020750D01*
X125194435Y-102199996D01*
X125194435Y-102200003D01*
X107078043Y-102200003D01*
X107249215Y-102104994D01*
X107249216Y-102104994D01*
X107403530Y-101972521D01*
X107403531Y-101972520D01*
X107528018Y-101811695D01*
X107617588Y-101629093D01*
X107643246Y-101530000D01*
X106841111Y-101530000D01*
X106880610Y-101505543D01*
X106948201Y-101416038D01*
X106974103Y-101325003D01*
X140469909Y-101325003D01*
X140488212Y-101487455D01*
X140542210Y-101641774D01*
X140542211Y-101641775D01*
X140629192Y-101780204D01*
X140744796Y-101895808D01*
X140883225Y-101982789D01*
X141037539Y-102036786D01*
X141037542Y-102036786D01*
X141037544Y-102036787D01*
X141199996Y-102055091D01*
X141200000Y-102055091D01*
X141200004Y-102055091D01*
X141362455Y-102036787D01*
X141362456Y-102036786D01*
X141362461Y-102036786D01*
X141516775Y-101982789D01*
X141655204Y-101895808D01*
X141770808Y-101780204D01*
X141857789Y-101641775D01*
X141911786Y-101487461D01*
X141911787Y-101487455D01*
X141930091Y-101325003D01*
X141930091Y-101324996D01*
X141911787Y-101162544D01*
X141911786Y-101162542D01*
X141911786Y-101162539D01*
X141857789Y-101008225D01*
X141846948Y-100990972D01*
X141827948Y-100923737D01*
X141846949Y-100859026D01*
X141857789Y-100841775D01*
X141898649Y-100725003D01*
X150869909Y-100725003D01*
X150888212Y-100887455D01*
X150942210Y-101041774D01*
X151018092Y-101162539D01*
X151029192Y-101180204D01*
X151144796Y-101295808D01*
X151283225Y-101382789D01*
X151437539Y-101436786D01*
X151437542Y-101436786D01*
X151437544Y-101436787D01*
X151599996Y-101455091D01*
X151600000Y-101455091D01*
X151600004Y-101455091D01*
X151762455Y-101436787D01*
X151762456Y-101436786D01*
X151762461Y-101436786D01*
X151916775Y-101382789D01*
X152055204Y-101295808D01*
X152170808Y-101180204D01*
X152257789Y-101041775D01*
X152311786Y-100887461D01*
X152311787Y-100887455D01*
X152330091Y-100725003D01*
X152330091Y-100724996D01*
X152311787Y-100562544D01*
X152311786Y-100562542D01*
X152311786Y-100562539D01*
X152257789Y-100408225D01*
X152252621Y-100400001D01*
X163694390Y-100400001D01*
X163714804Y-100685433D01*
X163775628Y-100965037D01*
X163775630Y-100965043D01*
X163775631Y-100965046D01*
X163849292Y-101162539D01*
X163875635Y-101233166D01*
X164012770Y-101484309D01*
X164012775Y-101484317D01*
X164184254Y-101713387D01*
X164184270Y-101713405D01*
X164386594Y-101915729D01*
X164386612Y-101915745D01*
X164615682Y-102087224D01*
X164615690Y-102087229D01*
X164866833Y-102224364D01*
X164866832Y-102224364D01*
X164866836Y-102224365D01*
X164866839Y-102224367D01*
X165134954Y-102324369D01*
X165134960Y-102324370D01*
X165134962Y-102324371D01*
X165414566Y-102385195D01*
X165414568Y-102385195D01*
X165414572Y-102385196D01*
X165628552Y-102400500D01*
X166871448Y-102400500D01*
X167085428Y-102385196D01*
X167112739Y-102379255D01*
X167365037Y-102324371D01*
X167365037Y-102324370D01*
X167365046Y-102324369D01*
X167633161Y-102224367D01*
X167884315Y-102087226D01*
X168113395Y-101915739D01*
X168315739Y-101713395D01*
X168487226Y-101484315D01*
X168624367Y-101233161D01*
X168724369Y-100965046D01*
X168785196Y-100685428D01*
X168805610Y-100400000D01*
X168804964Y-100390974D01*
X168798130Y-100295418D01*
X168785196Y-100114572D01*
X168779298Y-100087461D01*
X168724371Y-99834962D01*
X168724370Y-99834960D01*
X168724369Y-99834954D01*
X168624367Y-99566839D01*
X168604300Y-99530090D01*
X168487229Y-99315690D01*
X168487224Y-99315682D01*
X168315745Y-99086612D01*
X168315729Y-99086594D01*
X168113405Y-98884270D01*
X168113387Y-98884254D01*
X167884317Y-98712775D01*
X167884309Y-98712770D01*
X167633166Y-98575635D01*
X167633167Y-98575635D01*
X167475354Y-98516774D01*
X167365046Y-98475631D01*
X167365043Y-98475630D01*
X167365037Y-98475628D01*
X167085433Y-98414804D01*
X166871450Y-98399500D01*
X166871448Y-98399500D01*
X165628552Y-98399500D01*
X165628549Y-98399500D01*
X165414566Y-98414804D01*
X165134962Y-98475628D01*
X164866833Y-98575635D01*
X164615690Y-98712770D01*
X164615682Y-98712775D01*
X164386612Y-98884254D01*
X164386594Y-98884270D01*
X164184270Y-99086594D01*
X164184254Y-99086612D01*
X164012775Y-99315682D01*
X164012770Y-99315690D01*
X163875635Y-99566833D01*
X163775628Y-99834962D01*
X163714804Y-100114566D01*
X163694390Y-100399998D01*
X163694390Y-100400001D01*
X152252621Y-100400001D01*
X152246948Y-100390972D01*
X152227948Y-100323737D01*
X152246949Y-100259026D01*
X152257789Y-100241775D01*
X152311786Y-100087461D01*
X152311787Y-100087455D01*
X152330091Y-99925003D01*
X152330091Y-99924996D01*
X152311787Y-99762544D01*
X152311786Y-99762542D01*
X152311786Y-99762539D01*
X152257789Y-99608225D01*
X152170808Y-99469796D01*
X152055204Y-99354192D01*
X152008750Y-99325003D01*
X151916774Y-99267210D01*
X151762455Y-99213212D01*
X151600004Y-99194909D01*
X151599996Y-99194909D01*
X151437544Y-99213212D01*
X151283225Y-99267210D01*
X151144795Y-99354192D01*
X151029192Y-99469795D01*
X150942210Y-99608225D01*
X150888212Y-99762544D01*
X150869909Y-99924996D01*
X150869909Y-99925003D01*
X150888212Y-100087455D01*
X150888213Y-100087460D01*
X150888214Y-100087461D01*
X150897701Y-100114572D01*
X150942211Y-100241776D01*
X150953053Y-100259032D01*
X150972051Y-100326269D01*
X150953053Y-100390968D01*
X150942211Y-100408223D01*
X150888212Y-100562544D01*
X150869909Y-100724996D01*
X150869909Y-100725003D01*
X141898649Y-100725003D01*
X141911786Y-100687461D01*
X141914347Y-100664732D01*
X141930091Y-100525003D01*
X141930091Y-100524996D01*
X141911787Y-100362544D01*
X141911786Y-100362542D01*
X141911786Y-100362539D01*
X141857789Y-100208225D01*
X141770808Y-100069796D01*
X141655204Y-99954192D01*
X141608750Y-99925003D01*
X141516774Y-99867210D01*
X141362455Y-99813212D01*
X141200004Y-99794909D01*
X141199996Y-99794909D01*
X141037544Y-99813212D01*
X140883225Y-99867210D01*
X140744795Y-99954192D01*
X140629192Y-100069795D01*
X140542210Y-100208225D01*
X140488212Y-100362544D01*
X140469909Y-100524996D01*
X140469909Y-100525003D01*
X140488212Y-100687455D01*
X140542211Y-100841776D01*
X140553053Y-100859032D01*
X140572051Y-100926269D01*
X140553053Y-100990968D01*
X140542211Y-101008223D01*
X140488212Y-101162544D01*
X140469909Y-101324996D01*
X140469909Y-101325003D01*
X106974103Y-101325003D01*
X106978895Y-101308160D01*
X106968546Y-101196479D01*
X106918552Y-101096078D01*
X106846069Y-101030000D01*
X107648366Y-101030000D01*
X107648068Y-101028053D01*
X107648066Y-101028047D01*
X107577437Y-100837342D01*
X107577434Y-100837335D01*
X107469850Y-100664732D01*
X107329735Y-100517331D01*
X107329733Y-100517330D01*
X107162804Y-100401143D01*
X106975907Y-100320940D01*
X106776690Y-100280000D01*
X106375000Y-100280000D01*
X106375000Y-100980000D01*
X105875000Y-100980000D01*
X105875000Y-100280000D01*
X105524287Y-100280000D01*
X105372661Y-100295418D01*
X105178618Y-100356299D01*
X105178608Y-100356304D01*
X105000784Y-100455005D01*
X105000783Y-100455005D01*
X104846469Y-100587478D01*
X104846468Y-100587479D01*
X104721981Y-100748304D01*
X104632411Y-100930906D01*
X104606754Y-101030000D01*
X105408889Y-101030000D01*
X105369390Y-101054457D01*
X105301799Y-101143962D01*
X105271105Y-101251840D01*
X105281454Y-101363521D01*
X105331448Y-101463922D01*
X105403931Y-101530000D01*
X104601634Y-101530000D01*
X103293246Y-101530000D01*
X102491111Y-101530000D01*
X102530610Y-101505543D01*
X102598201Y-101416038D01*
X102628895Y-101308160D01*
X102618546Y-101196479D01*
X102568552Y-101096078D01*
X102496069Y-101030000D01*
X103298366Y-101030000D01*
X103298068Y-101028053D01*
X103298066Y-101028047D01*
X103227437Y-100837342D01*
X103227434Y-100837335D01*
X103119850Y-100664732D01*
X102979735Y-100517331D01*
X102979733Y-100517330D01*
X102812804Y-100401143D01*
X102625907Y-100320940D01*
X102426690Y-100280000D01*
X102175000Y-100280000D01*
X102175000Y-100980000D01*
X101675000Y-100980000D01*
X101675000Y-100280000D01*
X101474287Y-100280000D01*
X101322661Y-100295418D01*
X101128618Y-100356299D01*
X101128608Y-100356304D01*
X100950784Y-100455005D01*
X100950783Y-100455005D01*
X100796469Y-100587478D01*
X100796468Y-100587479D01*
X100671981Y-100748304D01*
X100582411Y-100930906D01*
X100556754Y-101030000D01*
X101358889Y-101030000D01*
X101319390Y-101054457D01*
X101251799Y-101143962D01*
X101221105Y-101251840D01*
X101231454Y-101363521D01*
X101281448Y-101463922D01*
X101353931Y-101530000D01*
X100551634Y-101530000D01*
X100000500Y-101530000D01*
X100000500Y-98800003D01*
X144069909Y-98800003D01*
X144088212Y-98962455D01*
X144142210Y-99116774D01*
X144202808Y-99213214D01*
X144229192Y-99255204D01*
X144344796Y-99370808D01*
X144483225Y-99457789D01*
X144637539Y-99511786D01*
X144637542Y-99511786D01*
X144637544Y-99511787D01*
X144799996Y-99530091D01*
X144800000Y-99530091D01*
X144800004Y-99530091D01*
X144962455Y-99511787D01*
X144962456Y-99511786D01*
X144962461Y-99511786D01*
X145116775Y-99457789D01*
X145134027Y-99446948D01*
X145201263Y-99427948D01*
X145265972Y-99446948D01*
X145283225Y-99457789D01*
X145437539Y-99511786D01*
X145437542Y-99511786D01*
X145437544Y-99511787D01*
X145599996Y-99530091D01*
X145600000Y-99530091D01*
X145600004Y-99530091D01*
X145762455Y-99511787D01*
X145762456Y-99511786D01*
X145762461Y-99511786D01*
X145916775Y-99457789D01*
X146055204Y-99370808D01*
X146112319Y-99313693D01*
X146173642Y-99280208D01*
X146243334Y-99285192D01*
X146287681Y-99313693D01*
X146344796Y-99370808D01*
X146483225Y-99457789D01*
X146637539Y-99511786D01*
X146637542Y-99511786D01*
X146637544Y-99511787D01*
X146799996Y-99530091D01*
X146800000Y-99530091D01*
X146800004Y-99530091D01*
X146962455Y-99511787D01*
X146962456Y-99511786D01*
X146962461Y-99511786D01*
X147116775Y-99457789D01*
X147255204Y-99370808D01*
X147312319Y-99313693D01*
X147373642Y-99280208D01*
X147443334Y-99285192D01*
X147487681Y-99313693D01*
X147544796Y-99370808D01*
X147683225Y-99457789D01*
X147837539Y-99511786D01*
X147837542Y-99511786D01*
X147837544Y-99511787D01*
X147947018Y-99524121D01*
X148000000Y-99530091D01*
X148000943Y-99529984D01*
X148001550Y-99530091D01*
X148006964Y-99530091D01*
X148006964Y-99531038D01*
X148069762Y-99542031D01*
X148121147Y-99589374D01*
X148131878Y-99612248D01*
X148142209Y-99641772D01*
X148142211Y-99641775D01*
X148229192Y-99780204D01*
X148344796Y-99895808D01*
X148483225Y-99982789D01*
X148637539Y-100036786D01*
X148637542Y-100036786D01*
X148637544Y-100036787D01*
X148799996Y-100055091D01*
X148800000Y-100055091D01*
X148800004Y-100055091D01*
X148962455Y-100036787D01*
X148962456Y-100036786D01*
X148962461Y-100036786D01*
X149116775Y-99982789D01*
X149255204Y-99895808D01*
X149370808Y-99780204D01*
X149457789Y-99641775D01*
X149511786Y-99487461D01*
X149511787Y-99487455D01*
X149530091Y-99325003D01*
X149530091Y-99324996D01*
X149511787Y-99162544D01*
X149511786Y-99162542D01*
X149511786Y-99162539D01*
X149457789Y-99008225D01*
X149370808Y-98869796D01*
X149255204Y-98754192D01*
X149116774Y-98667210D01*
X148962455Y-98613212D01*
X148800004Y-98594909D01*
X148800000Y-98594909D01*
X148799041Y-98595017D01*
X148798425Y-98594909D01*
X148793037Y-98594909D01*
X148793037Y-98593965D01*
X148730220Y-98582960D01*
X148678842Y-98535609D01*
X148668120Y-98512750D01*
X148657788Y-98483223D01*
X148605181Y-98399500D01*
X148570808Y-98344796D01*
X148455204Y-98229192D01*
X148408750Y-98200003D01*
X153269909Y-98200003D01*
X153288212Y-98362455D01*
X153342210Y-98516774D01*
X153402808Y-98613214D01*
X153429192Y-98655204D01*
X153544796Y-98770808D01*
X153683225Y-98857789D01*
X153837539Y-98911786D01*
X153837542Y-98911786D01*
X153837544Y-98911787D01*
X153999996Y-98930091D01*
X154000000Y-98930091D01*
X154000004Y-98930091D01*
X154162455Y-98911787D01*
X154162456Y-98911786D01*
X154162461Y-98911786D01*
X154316775Y-98857789D01*
X154455204Y-98770808D01*
X154570808Y-98655204D01*
X154657789Y-98516775D01*
X154711786Y-98362461D01*
X154711787Y-98362455D01*
X154730091Y-98200003D01*
X154730091Y-98199996D01*
X154711787Y-98037544D01*
X154711786Y-98037542D01*
X154711786Y-98037539D01*
X154657789Y-97883225D01*
X154570808Y-97744796D01*
X154455204Y-97629192D01*
X154316774Y-97542210D01*
X154162455Y-97488212D01*
X154000004Y-97469909D01*
X153999996Y-97469909D01*
X153837544Y-97488212D01*
X153683225Y-97542210D01*
X153544795Y-97629192D01*
X153429192Y-97744795D01*
X153342210Y-97883225D01*
X153288212Y-98037544D01*
X153269909Y-98199996D01*
X153269909Y-98200003D01*
X148408750Y-98200003D01*
X148316774Y-98142210D01*
X148162455Y-98088212D01*
X148000004Y-98069909D01*
X147999996Y-98069909D01*
X147837544Y-98088212D01*
X147683225Y-98142210D01*
X147544795Y-98229192D01*
X147487681Y-98286307D01*
X147426358Y-98319792D01*
X147356666Y-98314808D01*
X147312319Y-98286307D01*
X147255204Y-98229192D01*
X147116774Y-98142210D01*
X146962455Y-98088212D01*
X146800004Y-98069909D01*
X146799996Y-98069909D01*
X146637544Y-98088212D01*
X146483225Y-98142210D01*
X146344795Y-98229192D01*
X146287681Y-98286307D01*
X146226358Y-98319792D01*
X146156666Y-98314808D01*
X146112319Y-98286307D01*
X146055204Y-98229192D01*
X145916774Y-98142210D01*
X145762455Y-98088212D01*
X145600004Y-98069909D01*
X145599996Y-98069909D01*
X145437544Y-98088212D01*
X145283223Y-98142211D01*
X145265968Y-98153053D01*
X145198731Y-98172051D01*
X145134032Y-98153053D01*
X145116776Y-98142211D01*
X144962455Y-98088212D01*
X144800004Y-98069909D01*
X144799996Y-98069909D01*
X144637544Y-98088212D01*
X144483225Y-98142210D01*
X144344795Y-98229192D01*
X144229192Y-98344795D01*
X144142210Y-98483225D01*
X144088212Y-98637544D01*
X144069909Y-98799996D01*
X144069909Y-98800003D01*
X100000500Y-98800003D01*
X100000500Y-96200003D01*
X126194435Y-96200003D01*
X126214630Y-96379249D01*
X126214631Y-96379254D01*
X126274211Y-96549523D01*
X126349855Y-96669909D01*
X126370184Y-96702262D01*
X126497738Y-96829816D01*
X126650478Y-96925789D01*
X126704797Y-96944796D01*
X126820745Y-96985368D01*
X126820750Y-96985369D01*
X126999996Y-97005565D01*
X127000000Y-97005565D01*
X127000004Y-97005565D01*
X127179249Y-96985369D01*
X127179252Y-96985368D01*
X127179255Y-96985368D01*
X127349522Y-96925789D01*
X127350773Y-96925003D01*
X140469909Y-96925003D01*
X140488212Y-97087455D01*
X140542210Y-97241774D01*
X140629190Y-97380201D01*
X140629192Y-97380204D01*
X140744796Y-97495808D01*
X140883225Y-97582789D01*
X141037539Y-97636786D01*
X141037542Y-97636786D01*
X141037544Y-97636787D01*
X141199996Y-97655091D01*
X141200000Y-97655091D01*
X141200004Y-97655091D01*
X141362455Y-97636787D01*
X141362456Y-97636786D01*
X141362461Y-97636786D01*
X141516775Y-97582789D01*
X141655204Y-97495808D01*
X141751009Y-97400003D01*
X151669909Y-97400003D01*
X151688212Y-97562455D01*
X151742210Y-97716774D01*
X151742211Y-97716775D01*
X151829192Y-97855204D01*
X151944796Y-97970808D01*
X152083225Y-98057789D01*
X152237539Y-98111786D01*
X152237542Y-98111786D01*
X152237544Y-98111787D01*
X152399996Y-98130091D01*
X152400000Y-98130091D01*
X152400004Y-98130091D01*
X152562455Y-98111787D01*
X152562456Y-98111786D01*
X152562461Y-98111786D01*
X152716775Y-98057789D01*
X152855204Y-97970808D01*
X152970808Y-97855204D01*
X153057789Y-97716775D01*
X153111786Y-97562461D01*
X153130091Y-97400000D01*
X153127860Y-97380201D01*
X153111787Y-97237544D01*
X153111786Y-97237542D01*
X153111786Y-97237539D01*
X153057789Y-97083225D01*
X152970808Y-96944796D01*
X152855204Y-96829192D01*
X152749127Y-96762539D01*
X152716774Y-96742210D01*
X152562455Y-96688212D01*
X152400004Y-96669909D01*
X152399996Y-96669909D01*
X152237544Y-96688212D01*
X152083225Y-96742210D01*
X151944795Y-96829192D01*
X151829192Y-96944795D01*
X151742210Y-97083225D01*
X151688212Y-97237544D01*
X151669909Y-97399996D01*
X151669909Y-97400003D01*
X141751009Y-97400003D01*
X141770808Y-97380204D01*
X141817924Y-97305218D01*
X141870258Y-97258927D01*
X141936802Y-97247970D01*
X141981291Y-97252983D01*
X141999999Y-97255091D01*
X142000000Y-97255091D01*
X142000004Y-97255091D01*
X142162455Y-97236787D01*
X142162456Y-97236786D01*
X142162461Y-97236786D01*
X142316775Y-97182789D01*
X142455204Y-97095808D01*
X142570808Y-96980204D01*
X142657789Y-96841775D01*
X142711786Y-96687461D01*
X142730091Y-96525003D01*
X143069909Y-96525003D01*
X143088212Y-96687455D01*
X143088213Y-96687460D01*
X143088214Y-96687461D01*
X143093393Y-96702262D01*
X143142210Y-96841774D01*
X143142211Y-96841775D01*
X143229192Y-96980204D01*
X143344796Y-97095808D01*
X143483225Y-97182789D01*
X143637539Y-97236786D01*
X143637542Y-97236786D01*
X143637544Y-97236787D01*
X143799996Y-97255091D01*
X143800000Y-97255091D01*
X143800004Y-97255091D01*
X143962455Y-97236787D01*
X143962456Y-97236786D01*
X143962461Y-97236786D01*
X144116775Y-97182789D01*
X144255204Y-97095808D01*
X144370808Y-96980204D01*
X144457789Y-96841775D01*
X144511786Y-96687461D01*
X144530091Y-96525003D01*
X146669909Y-96525003D01*
X146688212Y-96687455D01*
X146688213Y-96687460D01*
X146688214Y-96687461D01*
X146693393Y-96702262D01*
X146742210Y-96841774D01*
X146742211Y-96841775D01*
X146829192Y-96980204D01*
X146944796Y-97095808D01*
X147083225Y-97182789D01*
X147237539Y-97236786D01*
X147237542Y-97236786D01*
X147237544Y-97236787D01*
X147399996Y-97255091D01*
X147400000Y-97255091D01*
X147400004Y-97255091D01*
X147562455Y-97236787D01*
X147562456Y-97236786D01*
X147562461Y-97236786D01*
X147716775Y-97182789D01*
X147855204Y-97095808D01*
X147970808Y-96980204D01*
X148057789Y-96841775D01*
X148111786Y-96687461D01*
X148130091Y-96525000D01*
X148113669Y-96379255D01*
X148111787Y-96362544D01*
X148111786Y-96362542D01*
X148111786Y-96362539D01*
X148057789Y-96208225D01*
X147970808Y-96069796D01*
X147855204Y-95954192D01*
X147716774Y-95867210D01*
X147562455Y-95813212D01*
X147400004Y-95794909D01*
X147399996Y-95794909D01*
X147237544Y-95813212D01*
X147083225Y-95867210D01*
X146944795Y-95954192D01*
X146829192Y-96069795D01*
X146742210Y-96208225D01*
X146688212Y-96362544D01*
X146669909Y-96524996D01*
X146669909Y-96525003D01*
X144530091Y-96525003D01*
X144530091Y-96525000D01*
X144513669Y-96379255D01*
X144511787Y-96362544D01*
X144511786Y-96362542D01*
X144511786Y-96362539D01*
X144457789Y-96208225D01*
X144370808Y-96069796D01*
X144255204Y-95954192D01*
X144116774Y-95867210D01*
X143962455Y-95813212D01*
X143800004Y-95794909D01*
X143799996Y-95794909D01*
X143637544Y-95813212D01*
X143483225Y-95867210D01*
X143344795Y-95954192D01*
X143229192Y-96069795D01*
X143142210Y-96208225D01*
X143088212Y-96362544D01*
X143069909Y-96524996D01*
X143069909Y-96525003D01*
X142730091Y-96525003D01*
X142730091Y-96525000D01*
X142713669Y-96379255D01*
X142711787Y-96362544D01*
X142711786Y-96362542D01*
X142711786Y-96362539D01*
X142657789Y-96208225D01*
X142570808Y-96069796D01*
X142455204Y-95954192D01*
X142316774Y-95867210D01*
X142162455Y-95813212D01*
X142000004Y-95794909D01*
X141999996Y-95794909D01*
X141837544Y-95813212D01*
X141683225Y-95867210D01*
X141544795Y-95954192D01*
X141429192Y-96069795D01*
X141429190Y-96069798D01*
X141382074Y-96144782D01*
X141329739Y-96191073D01*
X141263198Y-96202029D01*
X141200003Y-96194909D01*
X141199996Y-96194909D01*
X141037544Y-96213212D01*
X140883225Y-96267210D01*
X140744795Y-96354192D01*
X140629192Y-96469795D01*
X140542210Y-96608225D01*
X140488212Y-96762544D01*
X140469909Y-96924996D01*
X140469909Y-96925003D01*
X127350773Y-96925003D01*
X127502262Y-96829816D01*
X127629816Y-96702262D01*
X127725789Y-96549522D01*
X127785368Y-96379255D01*
X127787251Y-96362544D01*
X127805565Y-96200003D01*
X127805565Y-96199996D01*
X127785369Y-96020750D01*
X127785368Y-96020745D01*
X127725788Y-95850476D01*
X127629815Y-95697737D01*
X127502262Y-95570184D01*
X127349523Y-95474211D01*
X127179254Y-95414631D01*
X127179249Y-95414630D01*
X127000004Y-95394435D01*
X126999996Y-95394435D01*
X126820750Y-95414630D01*
X126820745Y-95414631D01*
X126650476Y-95474211D01*
X126497737Y-95570184D01*
X126370184Y-95697737D01*
X126274211Y-95850476D01*
X126214631Y-96020745D01*
X126214630Y-96020750D01*
X126194435Y-96199996D01*
X126194435Y-96200003D01*
X100000500Y-96200003D01*
X100000500Y-94800003D01*
X149269909Y-94800003D01*
X149288212Y-94962455D01*
X149342210Y-95116774D01*
X149342211Y-95116775D01*
X149429192Y-95255204D01*
X149544796Y-95370808D01*
X149683225Y-95457789D01*
X149837539Y-95511786D01*
X149837542Y-95511786D01*
X149837544Y-95511787D01*
X149999996Y-95530091D01*
X150000000Y-95530091D01*
X150000004Y-95530091D01*
X150162455Y-95511787D01*
X150162456Y-95511786D01*
X150162461Y-95511786D01*
X150316775Y-95457789D01*
X150434028Y-95384113D01*
X150501264Y-95365113D01*
X150565971Y-95384113D01*
X150683225Y-95457789D01*
X150837539Y-95511786D01*
X150837542Y-95511786D01*
X150837544Y-95511787D01*
X150999996Y-95530091D01*
X151000000Y-95530091D01*
X151000004Y-95530091D01*
X151162455Y-95511787D01*
X151162456Y-95511786D01*
X151162461Y-95511786D01*
X151316775Y-95457789D01*
X151455204Y-95370808D01*
X151570808Y-95255204D01*
X151657789Y-95116775D01*
X151711786Y-94962461D01*
X151730091Y-94800000D01*
X151727753Y-94779254D01*
X151711787Y-94637544D01*
X151711786Y-94637542D01*
X151711786Y-94637539D01*
X151698652Y-94600003D01*
X160994435Y-94600003D01*
X161014630Y-94779249D01*
X161014631Y-94779254D01*
X161074211Y-94949523D01*
X161082337Y-94962455D01*
X161170184Y-95102262D01*
X161297738Y-95229816D01*
X161450478Y-95325789D01*
X161562860Y-95365113D01*
X161620745Y-95385368D01*
X161620750Y-95385369D01*
X161799996Y-95405565D01*
X161800000Y-95405565D01*
X161800004Y-95405565D01*
X161979249Y-95385369D01*
X161979252Y-95385368D01*
X161979255Y-95385368D01*
X162149522Y-95325789D01*
X162302262Y-95229816D01*
X162429816Y-95102262D01*
X162525789Y-94949522D01*
X162585368Y-94779255D01*
X162601335Y-94637544D01*
X162605565Y-94600003D01*
X162605565Y-94599996D01*
X162585369Y-94420750D01*
X162585368Y-94420745D01*
X162558792Y-94344795D01*
X162525789Y-94250478D01*
X162429816Y-94097738D01*
X162302262Y-93970184D01*
X162149523Y-93874211D01*
X161979254Y-93814631D01*
X161979249Y-93814630D01*
X161800004Y-93794435D01*
X161799996Y-93794435D01*
X161620750Y-93814630D01*
X161620745Y-93814631D01*
X161450476Y-93874211D01*
X161297737Y-93970184D01*
X161170184Y-94097737D01*
X161074211Y-94250476D01*
X161014631Y-94420745D01*
X161014630Y-94420750D01*
X160994435Y-94599996D01*
X160994435Y-94600003D01*
X151698652Y-94600003D01*
X151657789Y-94483225D01*
X151570808Y-94344796D01*
X151455204Y-94229192D01*
X151434028Y-94215886D01*
X151316774Y-94142210D01*
X151162455Y-94088212D01*
X151000004Y-94069909D01*
X150999996Y-94069909D01*
X150837544Y-94088212D01*
X150683225Y-94142210D01*
X150565972Y-94215886D01*
X150498735Y-94234886D01*
X150434028Y-94215886D01*
X150316774Y-94142210D01*
X150162455Y-94088212D01*
X150000004Y-94069909D01*
X149999996Y-94069909D01*
X149837544Y-94088212D01*
X149683225Y-94142210D01*
X149544795Y-94229192D01*
X149429192Y-94344795D01*
X149342210Y-94483225D01*
X149288212Y-94637544D01*
X149269909Y-94799996D01*
X149269909Y-94800003D01*
X100000500Y-94800003D01*
X100000500Y-89506610D01*
X104649500Y-89506610D01*
X104688679Y-89716198D01*
X104765702Y-89915019D01*
X104877948Y-90096302D01*
X104896612Y-90116775D01*
X105021593Y-90253872D01*
X105191746Y-90382367D01*
X105382606Y-90477403D01*
X105382608Y-90477403D01*
X105382611Y-90477405D01*
X105587690Y-90535756D01*
X105746806Y-90550500D01*
X105746810Y-90550500D01*
X105853190Y-90550500D01*
X105853194Y-90550500D01*
X106012310Y-90535756D01*
X106217389Y-90477405D01*
X106217393Y-90477403D01*
X106217394Y-90477403D01*
X106408253Y-90382367D01*
X106408253Y-90382366D01*
X106408255Y-90382366D01*
X106578407Y-90253872D01*
X106722052Y-90096302D01*
X106834298Y-89915019D01*
X106911321Y-89716198D01*
X106950500Y-89506610D01*
X106950500Y-89400000D01*
X112484778Y-89400000D01*
X112500347Y-89637544D01*
X112503644Y-89687837D01*
X112503646Y-89687849D01*
X112559917Y-89970745D01*
X112559921Y-89970760D01*
X112652642Y-90243905D01*
X112780219Y-90502606D01*
X112780223Y-90502613D01*
X112940478Y-90742452D01*
X113130672Y-90959327D01*
X113342158Y-91144795D01*
X113347546Y-91149520D01*
X113587389Y-91309778D01*
X113846098Y-91437359D01*
X114119247Y-91530081D01*
X114402161Y-91586356D01*
X114690000Y-91605222D01*
X114769626Y-91600003D01*
X164469909Y-91600003D01*
X164488212Y-91762455D01*
X164542210Y-91916774D01*
X164542211Y-91916775D01*
X164629192Y-92055204D01*
X164744796Y-92170808D01*
X164883225Y-92257789D01*
X165037539Y-92311786D01*
X165037542Y-92311786D01*
X165037544Y-92311787D01*
X165199996Y-92330091D01*
X165200000Y-92330091D01*
X165200004Y-92330091D01*
X165362455Y-92311787D01*
X165362456Y-92311786D01*
X165362461Y-92311786D01*
X165516775Y-92257789D01*
X165655204Y-92170808D01*
X165770808Y-92055204D01*
X165857789Y-91916775D01*
X165911786Y-91762461D01*
X165930091Y-91600003D01*
X166469909Y-91600003D01*
X166488212Y-91762455D01*
X166542210Y-91916774D01*
X166542211Y-91916775D01*
X166629192Y-92055204D01*
X166744796Y-92170808D01*
X166883225Y-92257789D01*
X167037539Y-92311786D01*
X167037542Y-92311786D01*
X167037544Y-92311787D01*
X167199996Y-92330091D01*
X167200000Y-92330091D01*
X167200004Y-92330091D01*
X167362455Y-92311787D01*
X167362456Y-92311786D01*
X167362461Y-92311786D01*
X167516775Y-92257789D01*
X167655204Y-92170808D01*
X167770808Y-92055204D01*
X167857789Y-91916775D01*
X167911786Y-91762461D01*
X167930091Y-91600000D01*
X167928553Y-91586353D01*
X167911787Y-91437544D01*
X167911786Y-91437542D01*
X167911786Y-91437539D01*
X167857789Y-91283225D01*
X167770808Y-91144796D01*
X167655204Y-91029192D01*
X167562287Y-90970808D01*
X167516774Y-90942210D01*
X167362455Y-90888212D01*
X167200004Y-90869909D01*
X167199996Y-90869909D01*
X167037544Y-90888212D01*
X166883225Y-90942210D01*
X166744795Y-91029192D01*
X166629192Y-91144795D01*
X166542210Y-91283225D01*
X166488212Y-91437544D01*
X166469909Y-91599996D01*
X166469909Y-91600003D01*
X165930091Y-91600003D01*
X165930091Y-91600000D01*
X165928553Y-91586353D01*
X165911787Y-91437544D01*
X165911786Y-91437542D01*
X165911786Y-91437539D01*
X165857789Y-91283225D01*
X165770808Y-91144796D01*
X165655204Y-91029192D01*
X165562287Y-90970808D01*
X165516774Y-90942210D01*
X165362455Y-90888212D01*
X165200004Y-90869909D01*
X165199996Y-90869909D01*
X165037544Y-90888212D01*
X164883225Y-90942210D01*
X164744795Y-91029192D01*
X164629192Y-91144795D01*
X164542210Y-91283225D01*
X164488212Y-91437544D01*
X164469909Y-91599996D01*
X164469909Y-91600003D01*
X114769626Y-91600003D01*
X114977839Y-91586356D01*
X115260753Y-91530081D01*
X115533902Y-91437359D01*
X115792611Y-91309778D01*
X116032454Y-91149520D01*
X116249327Y-90959327D01*
X116439520Y-90742454D01*
X116599778Y-90502611D01*
X116650379Y-90400003D01*
X143269909Y-90400003D01*
X143288212Y-90562455D01*
X143342210Y-90716774D01*
X143342211Y-90716775D01*
X143429192Y-90855204D01*
X143544796Y-90970808D01*
X143683225Y-91057789D01*
X143837539Y-91111786D01*
X143837542Y-91111786D01*
X143837544Y-91111787D01*
X143999996Y-91130091D01*
X144000000Y-91130091D01*
X144000004Y-91130091D01*
X144162455Y-91111787D01*
X144162456Y-91111786D01*
X144162461Y-91111786D01*
X144316775Y-91057789D01*
X144455204Y-90970808D01*
X144570808Y-90855204D01*
X144657789Y-90716775D01*
X144705199Y-90581283D01*
X144745920Y-90524510D01*
X144781281Y-90505200D01*
X144916775Y-90457789D01*
X145055204Y-90370808D01*
X145170808Y-90255204D01*
X145257789Y-90116775D01*
X145311786Y-89962461D01*
X145311787Y-89962455D01*
X145330091Y-89800003D01*
X145330091Y-89799996D01*
X145311787Y-89637544D01*
X145311786Y-89637542D01*
X145311786Y-89637539D01*
X145257789Y-89483225D01*
X145170808Y-89344796D01*
X145055204Y-89229192D01*
X144916774Y-89142210D01*
X144762455Y-89088212D01*
X144600004Y-89069909D01*
X144599996Y-89069909D01*
X144437544Y-89088212D01*
X144283225Y-89142210D01*
X144144795Y-89229192D01*
X144029192Y-89344795D01*
X143942209Y-89483227D01*
X143894800Y-89618714D01*
X143854079Y-89675490D01*
X143818714Y-89694800D01*
X143683227Y-89742209D01*
X143544795Y-89829192D01*
X143429192Y-89944795D01*
X143342210Y-90083225D01*
X143288212Y-90237544D01*
X143269909Y-90399996D01*
X143269909Y-90400003D01*
X116650379Y-90400003D01*
X116727359Y-90243902D01*
X116820081Y-89970753D01*
X116876356Y-89687839D01*
X116895222Y-89400000D01*
X116876356Y-89112161D01*
X116820081Y-88829247D01*
X116727359Y-88556098D01*
X116599778Y-88297389D01*
X116439520Y-88057546D01*
X116249327Y-87840672D01*
X116032452Y-87650478D01*
X115792613Y-87490223D01*
X115792606Y-87490219D01*
X115533905Y-87362642D01*
X115260760Y-87269921D01*
X115260754Y-87269919D01*
X115260753Y-87269919D01*
X115260751Y-87269918D01*
X115260745Y-87269917D01*
X114977849Y-87213646D01*
X114977839Y-87213644D01*
X114690000Y-87194778D01*
X114402161Y-87213644D01*
X114402155Y-87213645D01*
X114402150Y-87213646D01*
X114119254Y-87269917D01*
X114119239Y-87269921D01*
X113846094Y-87362642D01*
X113587393Y-87490219D01*
X113587386Y-87490223D01*
X113347547Y-87650478D01*
X113130672Y-87840672D01*
X112940478Y-88057547D01*
X112780223Y-88297386D01*
X112780219Y-88297393D01*
X112652642Y-88556094D01*
X112559921Y-88829239D01*
X112559917Y-88829254D01*
X112509285Y-89083802D01*
X112503644Y-89112161D01*
X112484778Y-89400000D01*
X106950500Y-89400000D01*
X106950500Y-89293390D01*
X106911321Y-89083802D01*
X106834298Y-88884981D01*
X106722052Y-88703698D01*
X106578407Y-88546128D01*
X106578406Y-88546127D01*
X106408253Y-88417632D01*
X106217393Y-88322596D01*
X106012310Y-88264244D01*
X105853194Y-88249500D01*
X105746806Y-88249500D01*
X105619513Y-88261295D01*
X105587689Y-88264244D01*
X105382607Y-88322596D01*
X105382605Y-88322596D01*
X105191746Y-88417632D01*
X105021593Y-88546127D01*
X104877947Y-88703699D01*
X104765702Y-88884980D01*
X104765701Y-88884982D01*
X104694061Y-89069909D01*
X104688679Y-89083802D01*
X104649500Y-89293390D01*
X104649500Y-89506610D01*
X100000500Y-89506610D01*
X100000500Y-85590001D01*
X117184518Y-85590001D01*
X117204422Y-85868299D01*
X117263727Y-86140916D01*
X117263729Y-86140923D01*
X117285765Y-86200003D01*
X117361231Y-86402338D01*
X117361233Y-86402342D01*
X117494940Y-86647207D01*
X117494945Y-86647215D01*
X117662138Y-86870560D01*
X117662154Y-86870578D01*
X117859421Y-87067845D01*
X117859439Y-87067861D01*
X118082784Y-87235054D01*
X118082792Y-87235059D01*
X118327657Y-87368766D01*
X118327661Y-87368768D01*
X118327663Y-87368769D01*
X118589077Y-87466271D01*
X118699164Y-87490219D01*
X118861700Y-87525577D01*
X118861702Y-87525577D01*
X118861706Y-87525578D01*
X119109014Y-87543265D01*
X119139999Y-87545482D01*
X119140000Y-87545482D01*
X119140001Y-87545482D01*
X119167881Y-87543487D01*
X119418294Y-87525578D01*
X119690923Y-87466271D01*
X119952337Y-87368769D01*
X120197213Y-87235056D01*
X120420568Y-87067855D01*
X120617855Y-86870568D01*
X120785056Y-86647213D01*
X120918769Y-86402337D01*
X120994235Y-86200003D01*
X161669909Y-86200003D01*
X161688212Y-86362455D01*
X161742210Y-86516774D01*
X161742211Y-86516775D01*
X161829192Y-86655204D01*
X161944796Y-86770808D01*
X162083225Y-86857789D01*
X162237539Y-86911786D01*
X162237542Y-86911786D01*
X162237544Y-86911787D01*
X162399996Y-86930091D01*
X162400000Y-86930091D01*
X162400004Y-86930091D01*
X162562455Y-86911787D01*
X162562456Y-86911786D01*
X162562461Y-86911786D01*
X162716775Y-86857789D01*
X162855204Y-86770808D01*
X162970808Y-86655204D01*
X163057789Y-86516775D01*
X163111786Y-86362461D01*
X163130091Y-86200000D01*
X163111786Y-86037539D01*
X163057789Y-85883225D01*
X162970808Y-85744796D01*
X162855204Y-85629192D01*
X162792831Y-85590000D01*
X162716774Y-85542210D01*
X162562455Y-85488212D01*
X162400004Y-85469909D01*
X162399996Y-85469909D01*
X162237544Y-85488212D01*
X162083225Y-85542210D01*
X161944795Y-85629192D01*
X161829192Y-85744795D01*
X161742210Y-85883225D01*
X161688212Y-86037544D01*
X161669909Y-86199996D01*
X161669909Y-86200003D01*
X120994235Y-86200003D01*
X121016271Y-86140923D01*
X121075578Y-85868294D01*
X121095482Y-85590000D01*
X121075578Y-85311706D01*
X121016271Y-85039077D01*
X120918769Y-84777663D01*
X120790402Y-84542578D01*
X120785059Y-84532792D01*
X120785054Y-84532784D01*
X120617861Y-84309439D01*
X120617845Y-84309421D01*
X120420578Y-84112154D01*
X120420560Y-84112138D01*
X120197215Y-83944945D01*
X120197207Y-83944940D01*
X119952342Y-83811233D01*
X119952338Y-83811231D01*
X119853230Y-83774266D01*
X119690923Y-83713729D01*
X119690919Y-83713728D01*
X119690916Y-83713727D01*
X119418299Y-83654422D01*
X119140001Y-83634518D01*
X119139999Y-83634518D01*
X118861700Y-83654422D01*
X118589083Y-83713727D01*
X118589078Y-83713728D01*
X118589077Y-83713729D01*
X118525875Y-83737301D01*
X118327661Y-83811231D01*
X118327657Y-83811233D01*
X118082792Y-83944940D01*
X118082784Y-83944945D01*
X117859439Y-84112138D01*
X117859421Y-84112154D01*
X117662154Y-84309421D01*
X117662138Y-84309439D01*
X117494945Y-84532784D01*
X117494940Y-84532792D01*
X117361233Y-84777657D01*
X117361231Y-84777661D01*
X117263727Y-85039083D01*
X117204422Y-85311700D01*
X117184518Y-85589998D01*
X117184518Y-85590001D01*
X100000500Y-85590001D01*
X100000500Y-81886610D01*
X109729500Y-81886610D01*
X109768679Y-82096198D01*
X109768680Y-82096200D01*
X109840845Y-82282483D01*
X109845702Y-82295019D01*
X109957948Y-82476302D01*
X110087847Y-82618793D01*
X110101593Y-82633872D01*
X110271746Y-82762367D01*
X110462606Y-82857403D01*
X110462608Y-82857403D01*
X110462611Y-82857405D01*
X110667690Y-82915756D01*
X110826806Y-82930500D01*
X110826810Y-82930500D01*
X110933190Y-82930500D01*
X110933194Y-82930500D01*
X111092310Y-82915756D01*
X111297389Y-82857405D01*
X111297393Y-82857403D01*
X111297394Y-82857403D01*
X111488253Y-82762367D01*
X111488253Y-82762366D01*
X111488255Y-82762366D01*
X111658407Y-82633872D01*
X111802052Y-82476302D01*
X111914298Y-82295019D01*
X111991321Y-82096198D01*
X112030500Y-81886610D01*
X112030500Y-81780000D01*
X113119778Y-81780000D01*
X113138644Y-82067837D01*
X113138646Y-82067849D01*
X113194917Y-82350745D01*
X113194921Y-82350760D01*
X113287642Y-82623905D01*
X113415219Y-82882606D01*
X113415223Y-82882613D01*
X113575478Y-83122452D01*
X113765672Y-83339327D01*
X113982547Y-83529521D01*
X114222386Y-83689776D01*
X114222389Y-83689778D01*
X114481098Y-83817359D01*
X114754247Y-83910081D01*
X115037161Y-83966356D01*
X115325000Y-83985222D01*
X115612839Y-83966356D01*
X115895753Y-83910081D01*
X116168902Y-83817359D01*
X116427611Y-83689778D01*
X116667454Y-83529520D01*
X116884327Y-83339327D01*
X117074520Y-83122454D01*
X117234778Y-82882611D01*
X117362359Y-82623902D01*
X117455081Y-82350753D01*
X117480518Y-82222870D01*
X170849500Y-82222870D01*
X170849501Y-82222876D01*
X170855908Y-82282483D01*
X170906202Y-82417328D01*
X170906206Y-82417335D01*
X170992452Y-82532544D01*
X170992455Y-82532547D01*
X171107664Y-82618793D01*
X171107671Y-82618797D01*
X171148090Y-82633872D01*
X171239598Y-82668002D01*
X171295531Y-82709873D01*
X171319949Y-82775337D01*
X171305098Y-82843610D01*
X171283947Y-82871865D01*
X171161886Y-82993926D01*
X171026400Y-83187420D01*
X171026399Y-83187422D01*
X170926570Y-83401507D01*
X170926567Y-83401513D01*
X170869364Y-83614999D01*
X170869364Y-83615000D01*
X171766314Y-83615000D01*
X171740507Y-83655156D01*
X171700000Y-83793111D01*
X171700000Y-83936889D01*
X171740507Y-84074844D01*
X171766314Y-84115000D01*
X170869364Y-84115000D01*
X170926567Y-84328486D01*
X170926570Y-84328492D01*
X171026399Y-84542578D01*
X171161894Y-84736082D01*
X171328917Y-84903105D01*
X171522421Y-85038600D01*
X171736507Y-85138429D01*
X171736516Y-85138433D01*
X171950000Y-85195634D01*
X171950000Y-84300501D01*
X172057685Y-84349680D01*
X172164237Y-84365000D01*
X172235763Y-84365000D01*
X172342315Y-84349680D01*
X172450000Y-84300501D01*
X172450000Y-85195633D01*
X172663483Y-85138433D01*
X172663492Y-85138429D01*
X172877578Y-85038600D01*
X173071082Y-84903105D01*
X173238105Y-84736082D01*
X173373600Y-84542578D01*
X173473429Y-84328492D01*
X173473432Y-84328486D01*
X173530636Y-84115000D01*
X172633686Y-84115000D01*
X172659493Y-84074844D01*
X172700000Y-83936889D01*
X172700000Y-83793111D01*
X172659493Y-83655156D01*
X172633686Y-83615000D01*
X173530636Y-83615000D01*
X173530635Y-83614999D01*
X173473432Y-83401513D01*
X173473429Y-83401507D01*
X173373600Y-83187422D01*
X173373599Y-83187420D01*
X173238113Y-82993926D01*
X173238108Y-82993920D01*
X173116053Y-82871865D01*
X173082568Y-82810542D01*
X173087552Y-82740850D01*
X173129424Y-82684917D01*
X173160400Y-82668002D01*
X173292331Y-82618796D01*
X173407546Y-82532546D01*
X173493796Y-82417331D01*
X173544091Y-82282483D01*
X173550500Y-82222873D01*
X173550499Y-80427128D01*
X173544091Y-80367517D01*
X173493796Y-80232669D01*
X173493795Y-80232668D01*
X173493793Y-80232664D01*
X173407547Y-80117455D01*
X173407544Y-80117452D01*
X173292335Y-80031206D01*
X173292328Y-80031202D01*
X173157482Y-79980908D01*
X173157483Y-79980908D01*
X173097883Y-79974501D01*
X173097881Y-79974500D01*
X173097873Y-79974500D01*
X173097864Y-79974500D01*
X171302129Y-79974500D01*
X171302123Y-79974501D01*
X171242516Y-79980908D01*
X171107671Y-80031202D01*
X171107664Y-80031206D01*
X170992455Y-80117452D01*
X170992452Y-80117455D01*
X170906206Y-80232664D01*
X170906202Y-80232671D01*
X170855908Y-80367517D01*
X170849501Y-80427116D01*
X170849501Y-80427123D01*
X170849500Y-80427135D01*
X170849500Y-82222870D01*
X117480518Y-82222870D01*
X117511356Y-82067839D01*
X117530222Y-81780000D01*
X117511356Y-81492161D01*
X117455081Y-81209247D01*
X117362359Y-80936098D01*
X117234778Y-80677389D01*
X117074520Y-80437546D01*
X117013106Y-80367517D01*
X116884327Y-80220672D01*
X116667452Y-80030478D01*
X116427613Y-79870223D01*
X116427606Y-79870219D01*
X116168905Y-79742642D01*
X115895760Y-79649921D01*
X115895754Y-79649919D01*
X115895753Y-79649919D01*
X115895751Y-79649918D01*
X115895745Y-79649917D01*
X115612849Y-79593646D01*
X115612839Y-79593644D01*
X115325000Y-79574778D01*
X115037161Y-79593644D01*
X115037155Y-79593645D01*
X115037150Y-79593646D01*
X114754254Y-79649917D01*
X114754239Y-79649921D01*
X114481094Y-79742642D01*
X114222393Y-79870219D01*
X114222386Y-79870223D01*
X113982547Y-80030478D01*
X113765672Y-80220672D01*
X113575478Y-80437547D01*
X113415223Y-80677386D01*
X113415219Y-80677393D01*
X113287642Y-80936094D01*
X113194921Y-81209239D01*
X113194917Y-81209254D01*
X113138646Y-81492150D01*
X113138644Y-81492162D01*
X113119778Y-81780000D01*
X112030500Y-81780000D01*
X112030500Y-81673390D01*
X111991321Y-81463802D01*
X111914298Y-81264981D01*
X111802052Y-81083698D01*
X111658407Y-80926128D01*
X111658406Y-80926127D01*
X111488253Y-80797632D01*
X111297393Y-80702596D01*
X111092310Y-80644244D01*
X110933194Y-80629500D01*
X110826806Y-80629500D01*
X110699513Y-80641295D01*
X110667689Y-80644244D01*
X110462607Y-80702596D01*
X110462605Y-80702596D01*
X110271746Y-80797632D01*
X110101593Y-80926127D01*
X109957947Y-81083699D01*
X109845702Y-81264980D01*
X109845701Y-81264982D01*
X109768680Y-81463799D01*
X109768679Y-81463802D01*
X109729500Y-81673390D01*
X109729500Y-81886610D01*
X100000500Y-81886610D01*
X100000500Y-79000003D01*
X151194435Y-79000003D01*
X151214630Y-79179249D01*
X151214631Y-79179254D01*
X151274211Y-79349523D01*
X151370184Y-79502262D01*
X151497738Y-79629816D01*
X151650478Y-79725789D01*
X151820745Y-79785368D01*
X151820750Y-79785369D01*
X151999996Y-79805565D01*
X152000000Y-79805565D01*
X152000004Y-79805565D01*
X152179249Y-79785369D01*
X152179252Y-79785368D01*
X152179255Y-79785368D01*
X152349522Y-79725789D01*
X152502262Y-79629816D01*
X152629816Y-79502262D01*
X152725789Y-79349522D01*
X152785368Y-79179255D01*
X152805565Y-79000000D01*
X152785368Y-78820745D01*
X152725789Y-78650478D01*
X152629816Y-78497738D01*
X152502262Y-78370184D01*
X152349523Y-78274211D01*
X152179254Y-78214631D01*
X152179249Y-78214630D01*
X152000004Y-78194435D01*
X151999996Y-78194435D01*
X151820750Y-78214630D01*
X151820745Y-78214631D01*
X151650476Y-78274211D01*
X151497737Y-78370184D01*
X151370184Y-78497737D01*
X151274211Y-78650476D01*
X151214631Y-78820745D01*
X151214630Y-78820750D01*
X151194435Y-78999996D01*
X151194435Y-79000003D01*
X100000500Y-79000003D01*
X100000500Y-76897870D01*
X132649500Y-76897870D01*
X132649501Y-76897876D01*
X132655908Y-76957483D01*
X132706202Y-77092328D01*
X132706206Y-77092335D01*
X132792452Y-77207544D01*
X132792455Y-77207547D01*
X132907664Y-77293793D01*
X132907671Y-77293797D01*
X133042517Y-77344091D01*
X133042516Y-77344091D01*
X133049444Y-77344835D01*
X133102127Y-77350500D01*
X134897872Y-77350499D01*
X134957483Y-77344091D01*
X135092331Y-77293796D01*
X135207546Y-77207546D01*
X135293796Y-77092331D01*
X135343002Y-76960401D01*
X135384872Y-76904468D01*
X135450337Y-76880050D01*
X135518610Y-76894901D01*
X135546865Y-76916053D01*
X135668917Y-77038105D01*
X135862421Y-77173600D01*
X136076507Y-77273429D01*
X136076516Y-77273433D01*
X136290000Y-77330634D01*
X136290000Y-76435501D01*
X136397685Y-76484680D01*
X136504237Y-76500000D01*
X136575763Y-76500000D01*
X136682315Y-76484680D01*
X136790000Y-76435501D01*
X136790000Y-77330633D01*
X137003483Y-77273433D01*
X137003492Y-77273429D01*
X137217578Y-77173600D01*
X137411082Y-77038105D01*
X137578105Y-76871082D01*
X137708119Y-76685405D01*
X137762696Y-76641781D01*
X137832195Y-76634588D01*
X137894549Y-76666110D01*
X137911269Y-76685405D01*
X138041505Y-76871401D01*
X138208599Y-77038495D01*
X138305384Y-77106265D01*
X138402165Y-77174032D01*
X138402167Y-77174033D01*
X138402170Y-77174035D01*
X138616337Y-77273903D01*
X138844592Y-77335063D01*
X139021034Y-77350500D01*
X139079999Y-77355659D01*
X139080000Y-77355659D01*
X139080001Y-77355659D01*
X139138966Y-77350500D01*
X139315408Y-77335063D01*
X139543663Y-77273903D01*
X139757830Y-77174035D01*
X139951401Y-77038495D01*
X140118495Y-76871401D01*
X140248425Y-76685842D01*
X140303002Y-76642217D01*
X140372500Y-76635023D01*
X140434855Y-76666546D01*
X140451575Y-76685842D01*
X140581500Y-76871395D01*
X140581505Y-76871401D01*
X140748599Y-77038495D01*
X140845384Y-77106265D01*
X140942165Y-77174032D01*
X140942167Y-77174033D01*
X140942170Y-77174035D01*
X141156337Y-77273903D01*
X141384592Y-77335063D01*
X141561034Y-77350500D01*
X141619999Y-77355659D01*
X141620000Y-77355659D01*
X141620001Y-77355659D01*
X141678966Y-77350500D01*
X141855408Y-77335063D01*
X142083663Y-77273903D01*
X142297830Y-77174035D01*
X142491401Y-77038495D01*
X142658495Y-76871401D01*
X142794035Y-76677830D01*
X142893903Y-76463663D01*
X142951153Y-76250000D01*
X160249364Y-76250000D01*
X160306567Y-76463486D01*
X160306570Y-76463492D01*
X160406399Y-76677578D01*
X160541894Y-76871082D01*
X160708917Y-77038105D01*
X160902421Y-77173600D01*
X161116507Y-77273429D01*
X161116516Y-77273433D01*
X161330000Y-77330634D01*
X161330000Y-76435501D01*
X161437685Y-76484680D01*
X161544237Y-76500000D01*
X161615763Y-76500000D01*
X161722315Y-76484680D01*
X161830000Y-76435501D01*
X161830000Y-77330633D01*
X162043483Y-77273433D01*
X162043492Y-77273429D01*
X162257578Y-77173600D01*
X162451082Y-77038105D01*
X162618105Y-76871082D01*
X162748119Y-76685405D01*
X162802696Y-76641781D01*
X162872195Y-76634588D01*
X162934549Y-76666110D01*
X162951269Y-76685405D01*
X163081505Y-76871401D01*
X163248599Y-77038495D01*
X163345384Y-77106265D01*
X163442165Y-77174032D01*
X163442167Y-77174033D01*
X163442170Y-77174035D01*
X163656337Y-77273903D01*
X163884592Y-77335063D01*
X164061034Y-77350500D01*
X164119999Y-77355659D01*
X164120000Y-77355659D01*
X164120001Y-77355659D01*
X164178966Y-77350500D01*
X164355408Y-77335063D01*
X164583663Y-77273903D01*
X164797830Y-77174035D01*
X164991401Y-77038495D01*
X165158495Y-76871401D01*
X165288425Y-76685842D01*
X165343002Y-76642217D01*
X165412500Y-76635023D01*
X165474855Y-76666546D01*
X165491575Y-76685842D01*
X165621500Y-76871395D01*
X165621505Y-76871401D01*
X165788599Y-77038495D01*
X165885384Y-77106265D01*
X165982165Y-77174032D01*
X165982167Y-77174033D01*
X165982170Y-77174035D01*
X166196337Y-77273903D01*
X166424592Y-77335063D01*
X166601034Y-77350500D01*
X166659999Y-77355659D01*
X166660000Y-77355659D01*
X166660001Y-77355659D01*
X166718966Y-77350500D01*
X166895408Y-77335063D01*
X167123663Y-77273903D01*
X167337830Y-77174035D01*
X167531401Y-77038495D01*
X167653329Y-76916566D01*
X167714648Y-76883084D01*
X167784340Y-76888068D01*
X167840274Y-76929939D01*
X167857189Y-76960917D01*
X167906202Y-77092328D01*
X167906206Y-77092335D01*
X167992452Y-77207544D01*
X167992455Y-77207547D01*
X168107664Y-77293793D01*
X168107671Y-77293797D01*
X168242517Y-77344091D01*
X168242516Y-77344091D01*
X168249444Y-77344835D01*
X168302127Y-77350500D01*
X170097872Y-77350499D01*
X170157483Y-77344091D01*
X170292331Y-77293796D01*
X170407546Y-77207546D01*
X170493796Y-77092331D01*
X170544091Y-76957483D01*
X170550500Y-76897873D01*
X170550499Y-75102128D01*
X170544091Y-75042517D01*
X170543002Y-75039598D01*
X170493797Y-74907671D01*
X170493793Y-74907664D01*
X170407547Y-74792455D01*
X170407544Y-74792452D01*
X170292335Y-74706206D01*
X170292328Y-74706202D01*
X170157482Y-74655908D01*
X170157483Y-74655908D01*
X170097883Y-74649501D01*
X170097881Y-74649500D01*
X170097873Y-74649500D01*
X170097864Y-74649500D01*
X168302129Y-74649500D01*
X168302123Y-74649501D01*
X168242516Y-74655908D01*
X168107671Y-74706202D01*
X168107664Y-74706206D01*
X167992455Y-74792452D01*
X167992452Y-74792455D01*
X167906206Y-74907664D01*
X167906203Y-74907669D01*
X167857189Y-75039083D01*
X167815317Y-75095016D01*
X167749853Y-75119433D01*
X167681580Y-75104581D01*
X167653326Y-75083430D01*
X167531402Y-74961506D01*
X167531395Y-74961501D01*
X167337834Y-74825967D01*
X167337830Y-74825965D01*
X167337828Y-74825964D01*
X167123663Y-74726097D01*
X167123659Y-74726096D01*
X167123655Y-74726094D01*
X166895413Y-74664938D01*
X166895403Y-74664936D01*
X166660001Y-74644341D01*
X166659999Y-74644341D01*
X166424596Y-74664936D01*
X166424586Y-74664938D01*
X166196344Y-74726094D01*
X166196335Y-74726098D01*
X165982171Y-74825964D01*
X165982169Y-74825965D01*
X165788597Y-74961505D01*
X165621505Y-75128597D01*
X165491575Y-75314158D01*
X165436998Y-75357783D01*
X165367500Y-75364977D01*
X165305145Y-75333454D01*
X165288425Y-75314158D01*
X165158494Y-75128597D01*
X164991402Y-74961506D01*
X164991395Y-74961501D01*
X164797834Y-74825967D01*
X164797830Y-74825965D01*
X164797828Y-74825964D01*
X164583663Y-74726097D01*
X164583659Y-74726096D01*
X164583655Y-74726094D01*
X164355413Y-74664938D01*
X164355403Y-74664936D01*
X164120001Y-74644341D01*
X164119999Y-74644341D01*
X163884596Y-74664936D01*
X163884586Y-74664938D01*
X163656344Y-74726094D01*
X163656335Y-74726098D01*
X163442171Y-74825964D01*
X163442169Y-74825965D01*
X163248597Y-74961505D01*
X163081508Y-75128594D01*
X162951269Y-75314595D01*
X162896692Y-75358219D01*
X162827193Y-75365412D01*
X162764839Y-75333890D01*
X162748119Y-75314594D01*
X162618113Y-75128926D01*
X162618108Y-75128920D01*
X162451082Y-74961894D01*
X162257578Y-74826399D01*
X162043492Y-74726570D01*
X162043486Y-74726567D01*
X161830000Y-74669364D01*
X161830000Y-75564498D01*
X161722315Y-75515320D01*
X161615763Y-75500000D01*
X161544237Y-75500000D01*
X161437685Y-75515320D01*
X161330000Y-75564498D01*
X161330000Y-74669364D01*
X161329999Y-74669364D01*
X161116513Y-74726567D01*
X161116507Y-74726570D01*
X160902422Y-74826399D01*
X160902420Y-74826400D01*
X160708926Y-74961886D01*
X160708920Y-74961891D01*
X160541891Y-75128920D01*
X160541886Y-75128926D01*
X160406400Y-75322420D01*
X160406399Y-75322422D01*
X160306570Y-75536507D01*
X160306567Y-75536513D01*
X160249364Y-75749999D01*
X160249364Y-75750000D01*
X161146314Y-75750000D01*
X161120507Y-75790156D01*
X161080000Y-75928111D01*
X161080000Y-76071889D01*
X161120507Y-76209844D01*
X161146314Y-76250000D01*
X160249364Y-76250000D01*
X142951153Y-76250000D01*
X142955063Y-76235408D01*
X142975659Y-76000000D01*
X142955063Y-75764592D01*
X142893903Y-75536337D01*
X142794035Y-75322171D01*
X142788731Y-75314595D01*
X142658494Y-75128597D01*
X142491402Y-74961506D01*
X142491395Y-74961501D01*
X142297834Y-74825967D01*
X142297830Y-74825965D01*
X142297828Y-74825964D01*
X142083663Y-74726097D01*
X142083659Y-74726096D01*
X142083655Y-74726094D01*
X141855413Y-74664938D01*
X141855403Y-74664936D01*
X141620001Y-74644341D01*
X141619999Y-74644341D01*
X141384596Y-74664936D01*
X141384586Y-74664938D01*
X141156344Y-74726094D01*
X141156335Y-74726098D01*
X140942171Y-74825964D01*
X140942169Y-74825965D01*
X140748597Y-74961505D01*
X140581505Y-75128597D01*
X140451575Y-75314158D01*
X140396998Y-75357783D01*
X140327500Y-75364977D01*
X140265145Y-75333454D01*
X140248425Y-75314158D01*
X140118494Y-75128597D01*
X139951402Y-74961506D01*
X139951395Y-74961501D01*
X139757834Y-74825967D01*
X139757830Y-74825965D01*
X139757828Y-74825964D01*
X139543663Y-74726097D01*
X139543659Y-74726096D01*
X139543655Y-74726094D01*
X139315413Y-74664938D01*
X139315403Y-74664936D01*
X139080001Y-74644341D01*
X139079999Y-74644341D01*
X138844596Y-74664936D01*
X138844586Y-74664938D01*
X138616344Y-74726094D01*
X138616335Y-74726098D01*
X138402171Y-74825964D01*
X138402169Y-74825965D01*
X138208597Y-74961505D01*
X138041508Y-75128594D01*
X137911269Y-75314595D01*
X137856692Y-75358219D01*
X137787193Y-75365412D01*
X137724839Y-75333890D01*
X137708119Y-75314594D01*
X137578113Y-75128926D01*
X137578108Y-75128920D01*
X137411082Y-74961894D01*
X137217578Y-74826399D01*
X137003492Y-74726570D01*
X137003486Y-74726567D01*
X136790000Y-74669364D01*
X136790000Y-75564498D01*
X136682315Y-75515320D01*
X136575763Y-75500000D01*
X136504237Y-75500000D01*
X136397685Y-75515320D01*
X136290000Y-75564498D01*
X136290000Y-74669364D01*
X136289999Y-74669364D01*
X136076513Y-74726567D01*
X136076507Y-74726570D01*
X135862422Y-74826399D01*
X135862420Y-74826400D01*
X135668926Y-74961886D01*
X135546865Y-75083947D01*
X135485542Y-75117431D01*
X135415850Y-75112447D01*
X135359917Y-75070575D01*
X135343002Y-75039598D01*
X135293797Y-74907671D01*
X135293793Y-74907664D01*
X135207547Y-74792455D01*
X135207544Y-74792452D01*
X135092335Y-74706206D01*
X135092328Y-74706202D01*
X134957482Y-74655908D01*
X134957483Y-74655908D01*
X134897883Y-74649501D01*
X134897881Y-74649500D01*
X134897873Y-74649500D01*
X134897864Y-74649500D01*
X133102129Y-74649500D01*
X133102123Y-74649501D01*
X133042516Y-74655908D01*
X132907671Y-74706202D01*
X132907664Y-74706206D01*
X132792455Y-74792452D01*
X132792452Y-74792455D01*
X132706206Y-74907664D01*
X132706202Y-74907671D01*
X132655908Y-75042517D01*
X132649501Y-75102116D01*
X132649501Y-75102123D01*
X132649500Y-75102135D01*
X132649500Y-76897870D01*
X100000500Y-76897870D01*
X100000500Y-72851569D01*
X100020185Y-72784530D01*
X100036819Y-72763888D01*
X100763888Y-72036819D01*
X100825211Y-72003334D01*
X100851569Y-72000500D01*
X174148430Y-72000500D01*
X174215469Y-72020185D01*
G37*
G04 #@! TD.AperFunction*
M02*
